<?xml version="1.0" encoding="utf-8"?>
<!-- Generator: Adobe Illustrator 16.0.0, SVG Export Plug-In . SVG Version: 6.00 Build 0)  -->
<!DOCTYPE svg PUBLIC "-//W3C//DTD SVG 1.1//EN" "http://www.w3.org/Graphics/SVG/1.1/DTD/svg11.dtd">
<svg version="1.1" id="Capa_1" xmlns="http://www.w3.org/2000/svg" xmlns:xlink="http://www.w3.org/1999/xlink" x="0px" y="0px"
	 width="130px" height="35px" viewBox="0 0 130 35" enable-background="new 0 0 130 35" xml:space="preserve">
<g>
	<polygon fill="#EFE459" stroke="#000000" stroke-miterlimit="10" points="4.3,12.3 6,8.4 3.7,4.7 8,5.1 10.7,1.8 11.6,6 15.6,7.6 
		11.9,9.8 11.7,14.1 8.4,11.2 	"/>
	<polygon fill="#EFE459" stroke="#000000" stroke-miterlimit="10" points="12.1,22.8 8.7,22.2 6.3,24.6 5.9,21.2 2.9,19.6 6,18.2 
		6.5,14.8 8.8,17.3 12.2,16.8 10.6,19.8 	"/>
	<polygon fill="#EFE459" stroke="#000000" stroke-miterlimit="10" points="21.1,22.1 18.2,19.3 14.3,20 16.1,16.4 14.2,12.8 
		18.2,13.5 21,10.6 21.6,14.6 25.2,16.3 21.6,18.1 	"/>
	<polygon fill="#EFE459" stroke="#000000" stroke-miterlimit="10" points="18.8,32.8 15.9,31.7 13.4,33.5 13.6,30.4 11.1,28.6 
		14.1,27.8 15.1,24.9 16.7,27.4 19.8,27.5 17.9,29.9 	"/>
	<polygon fill="#EFE459" stroke="#000000" stroke-miterlimit="10" points="33.4,9.9 29.6,10 27.4,13.1 26.2,9.5 22.6,8.5 25.6,6.2 
		25.5,2.4 28.6,4.6 32.2,3.3 31,7 	"/>
	<rect x="44.4" y="5.5" fill="none" width="76.5" height="24.1"/>
	<text transform="matrix(1 0 0 1 50.3267 13.9829)" fill="#FFFFFF" font-family="'MyriadPro-Regular'" font-size="12">Jugando con </text>
	<text transform="matrix(1 0 0 1 58.6274 28.3828)" fill="#FFFFFF" font-family="'MyriadPro-Regular'" font-size="12">Illustrator</text>
</g>
</svg>
