<?xml version="1.0" encoding="utf-8"?>
<!-- Generator: Adobe Illustrator 16.0.0, SVG Export Plug-In . SVG Version: 6.00 Build 0)  -->
<!DOCTYPE svg PUBLIC "-//W3C//DTD SVG 1.1//EN" "http://www.w3.org/Graphics/SVG/1.1/DTD/svg11.dtd">
<svg version="1.1" id="Pagina_inicial_Mobil" xmlns="http://www.w3.org/2000/svg" xmlns:xlink="http://www.w3.org/1999/xlink"
	 x="0px" y="0px" width="130px" height="35px" viewBox="0 0 130 35" enable-background="new 0 0 130 35" xml:space="preserve">
<title>servicio-2</title>
<g>
	<circle fill="#AD8A18" cx="65.028" cy="17.528" r="17.528"/>
	<path d="M62.292,18.311V15.63c-0.01-0.122,0.03-0.243,0.112-0.335l0.335-0.111h0.167v-0.893c0.003-1.172,0.955-2.119,2.126-2.116
		c1.168,0.003,2.113,0.949,2.115,2.116v0.893h0.168l0.336,0.111c0.08,0.092,0.121,0.213,0.111,0.335v2.735
		c0.01,0.121-0.031,0.244-0.111,0.335l-0.336,0.112h-4.521L62.46,18.7C62.332,18.613,62.267,18.461,62.292,18.311z M63.8,15.127h2.4
		v-0.893c0.005-0.313-0.116-0.614-0.335-0.837c-0.221-0.224-0.523-0.346-0.837-0.335c-0.313-0.004-0.614,0.116-0.837,0.335
		c-0.224,0.22-0.346,0.524-0.335,0.837v0.893l0,0H63.8z"/>
	<path d="M54.924,22.496V11.053c0.006-0.442,0.187-0.863,0.502-1.172c0.305-0.321,0.729-0.502,1.172-0.502H73.4
		c0.441,0.006,0.863,0.187,1.172,0.502c0.322,0.306,0.504,0.729,0.504,1.172v11.443c-0.008,0.441-0.188,0.863-0.504,1.172
		c-0.305,0.32-0.729,0.503-1.172,0.503h-5.693c0.009,0.269,0.064,0.532,0.168,0.781l0.334,0.726
		c0.084,0.137,0.141,0.289,0.168,0.447c0,0.369-0.3,0.67-0.67,0.67h-5.415c-0.37,0-0.67-0.301-0.67-0.67
		c0.026-0.158,0.083-0.311,0.168-0.447l0.334-0.726c0.108-0.267,0.165-0.55,0.167-0.837h-5.693
		c-0.442-0.008-0.863-0.188-1.172-0.502C55.12,23.32,54.939,22.92,54.924,22.496z M56.264,19.816
		c0.007,0.086,0.047,0.166,0.111,0.224l0.224,0.11H73.4l0.225-0.11c0.064-0.058,0.104-0.138,0.111-0.224v-8.708
		c-0.008-0.086-0.047-0.166-0.111-0.223L73.4,10.773H56.599l-0.224,0.112c-0.064,0.057-0.104,0.137-0.111,0.223V19.816
		L56.264,19.816z"/>
</g>
</svg>
