<?xml version="1.0" encoding="utf-8"?>
<!-- Generator: Adobe Illustrator 16.0.0, SVG Export Plug-In . SVG Version: 6.00 Build 0)  -->
<!DOCTYPE svg PUBLIC "-//W3C//DTD SVG 1.1//EN" "http://www.w3.org/Graphics/SVG/1.1/DTD/svg11.dtd">
<svg version="1.1" id="Capa_1" xmlns="http://www.w3.org/2000/svg" xmlns:xlink="http://www.w3.org/1999/xlink" x="0px" y="0px"
	 width="288.1px" height="221.4px" viewBox="0 0 288.1 221.4" enable-background="new 0 0 288.1 221.4" xml:space="preserve">
<g id="g3">
	<path id="path5" fill="#5A3D1C" d="M213.4,133c1.9-3.6,3.5-6.8,2.7-10.8c-1.1-5.8-0.5-11.8-2-17.5c-0.6-2.2-2-4.4-1.5-6.7
		c1-4.6,1.2-9.1,0.3-13.8c-0.4-2-1.5-4.1-0.9-6c0.6-1.8,0.8-3.6,0.8-5.6c0-2.3-0.4-4.7-1.5-6.7c-0.5-1.1-2.1-4.4-3.4-4.3
		c0-1.7-0.1-3.4-0.5-5.1c-0.4-1.5-0.9-2.8-1.9-4c-0.3-0.4-1.3-1-1.5-1.4c-0.2-0.5,0.2-1.8,0.2-2.3c0.2-2.8,0-6.6-2.4-8.5
		c-3-2.3-7-0.5-10.1,0.6c-3.6,1.3-6.9,3.2-10.1,5.4c-4.2,3-8.5,6.3-11.8,10.3c0,0,0,0,0.1,0c-0.1,0-0.1,0.1-0.2,0.1
		c-0.8,0.9-1.5,1.7-2.2,2.6c-1.5,2-2.7,3.5-4.4,5.3c-1,1-2.9,5.7-3.6,6c-11.6,6.6-24.4,11.4-36.7,16.2c-13.6,5.3-27.5,10.2-41.6,14
		c-8.1,2.1-26.3,6-28.6-6.6c-1.9,1.1-3.8,6.4-4.6,8.4c-1.2,2.7-2.1,5.6-2.9,8.4c-0.3,0.2-0.5,0.7-0.7,1.7c-0.3,1.2-0.7,2.5-0.9,3.8
		c-2.1,14.4,2.7,28.4,12.5,39.1c3.1,3.3,7.2,5.4,10.4,8.5c3.1,3,5.8,5.8,9.8,7.8c5.7,2.7,11.6,4.8,17.8,6.2c1.8,0.4,3.7,0.7,5.5,0.9
		c1,0.1,2,0.2,3,0.3c1.3,0.1,1.3,0.7,1.6,2c1.1,4.2,1.3,8.4,0.9,12.8c0.1,0,0.1,0,0.2,0c-0.5,0.3-0.5,1.5-0.6,2.2
		c-0.1,0.4-2.5-0.1-3.1-0.1c-2.9,0.2-5.9,0.4-8.8,0.6c-4.1,0.3-10.6-0.1-13.9,2.9c-2.7,2.4-5.8,7-2.1,10.1c3.4,2.8,11.2-0.1,15-0.8
		c-1.9,2.1-3.4,5-1.7,7.5c1.3,1.8,4.4,2.1,6.6,1.3c2.3-0.9,4.2-1.3,6-3.1c1.2-1.2,2.4-4.5,3.9-5.1c-0.1,3.9,0.2,7.6,3.9,9.9
		c2.8,1.7,6.5,1.3,7.2-2.3c0.9-4.3-0.8-8.9,0.4-13.1c0.5-1.5,1.5-3.1,1.9-4.8c0.4-1.7-1.2-3.7-1.7-5.2c-2-4.4-0.4-10-0.3-14.7
		c0.5,0,0.9,0,1.4,0.1c-0.2,2.3,1.9,5.1,2.5,7.4c0.4,1.4,0.7,2.9,0.9,4.3c0.2,1.1,0.3,2.6,1.3,2.9c-0.2,0-0.3,0-0.5,0
		c0.4,1.1,1,2.1,1.2,3.4c0.3,2-0.5,3.8,0.4,5.9c0.8,1.9,2.6,3.7,3.9,5.5c1.4,2,2.6,4.2,4.3,6c1.5,1.6,6.5,4.8,8.8,2.9
		c0.7-0.6,1.2-1.1,1.6-2c0.9-2.1-0.7-4.3-2.1-5.9c1,0.1,2-0.1,2.9,0.1c0.9,0.2,2,0.9,2.9,1.3c2,0.8,4.1,1.4,6.2,1.8
		c3.2,0.6,8.9,1.7,11.9-0.1c2.4-1.4,5-2.7,4.4-6c-0.7-3.8-5.7-4.1-8.8-5c2.1-0.4,3.7-1.4,3.4-3.8c-0.2-1.4-1.3-2.5-2.3-3.4
		c-0.4-0.4-1-0.6-1.5-0.7h0.5c-3.9-2.6-8.9-0.8-13,0h6.3c0,0,0,0,0,0c-3.4,0-6.7,0.1-10.1,0.5c-2,0.2-4,0.4-5.9,0.6
		c-0.5,0-1.3,0.2-1.7,0c-0.5-0.3-0.5-0.7-0.8-1c0,0,0,0,0-0.1c0.1,0,0.1,0,0.2,0c-1-2.6-1.5-5-1.7-7.7c-0.1-1.1-0.5-7.4,0.4-7.6
		c6-0.8,11.9-1.8,17.9-2.3c2.9-0.2,5.9,0,8.6-1c2.4-0.8,5.3-0.7,7.8-1.4c10.3-2.6,20.9-10.3,27.8-18.3c3.8-4.5,7.6-9.1,11-13.8
		C209.3,139.9,211.5,136.6,213.4,133L213.4,133z"/>
	<g id="g7">
		<path id="path9" fill="none" d="M273,138.5h1.3c-0.6,0-1-0.1-1.4-0.2C272.9,138.3,273,138.4,273,138.5L273,138.5z"/>
		<path id="path11" fill="none" d="M279,187c0.5-0.4,1-0.8,1.4-1.2c0.2-0.1,0.3-0.3,0.5-0.5C280.2,185.7,279.6,186.4,279,187
			L279,187z"/>
		<path id="path13" fill="none" d="M220.4,139.6c-0.5-0.4-1.1-0.7-1.7-1c0,0,0,0,0,0C219.3,138.8,220.1,139.4,220.4,139.6
			L220.4,139.6z"/>
		<path id="path17" fill="none" d="M212.8,134.7"/>
		<path id="path19" fill="none" d="M226.8,142.2c-0.3,0.3-0.6,0.6-0.8,0.8c0.1,0.1,0.2,0.1,0.3,0.2
			C226.5,142.9,226.8,142.6,226.8,142.2C226.8,142.3,226.8,142.3,226.8,142.2L226.8,142.2z"/>
		<path id="path21" fill="none" d="M249,191.4c-0.1-0.1-0.2-0.1-0.2-0.2C248.8,191.3,248.9,191.3,249,191.4L249,191.4z"/>
		<path id="path23" fill="none" d="M227.8,139.4C227.8,139.4,227.8,139.4,227.8,139.4C227.8,139.4,227.8,139.4,227.8,139.4
			L227.8,139.4L227.8,139.4z"/>
		<path id="path25" fill="none" d="M245,123.1c-0.1,0-0.1,0.1-0.2,0.2C245,123.3,245,123.3,245,123.1
			C245.1,123.2,245.1,123.2,245,123.1L245,123.1z"/>
		<path id="path27" fill="none" d="M163.8,158.5c-0.2-0.1-0.4-0.3-0.8-0.4C163.3,158.3,163.6,158.4,163.8,158.5L163.8,158.5z"/>
		<path id="path29" fill="none" d="M184,144.5c0.2,0.6,0.2,1.2,0.3,2c0.6-0.6,1.2-1.3,1.8-2c-0.1,0-0.2,0.1-0.3,0.1
			C185.3,144.8,184.5,144.7,184,144.5L184,144.5z"/>
		<path id="path31" fill="none" d="M8.6,151.3c-0.3-0.2-0.6-0.3-0.9-0.5c0.5,0.3,1.1,0.6,1.6,0.9C9,151.6,8.8,151.5,8.6,151.3
			L8.6,151.3z"/>
		<path id="path33" fill="none" d="M29.7,197.4c-0.2,0-0.3-0.1-0.5-0.1c0.1,0.2,0.1,0.5,0.2,0.7C29.4,197.8,29.5,197.6,29.7,197.4
			L29.7,197.4z"/>
		<path id="path35" fill="none" d="M21.4,193.6c0.2,0.1,0.4,0.1,0.7,0.2c-0.9,0-1.8,0.1-2.7,0.1c1.5,0.1,3,0.2,4.4,0.4
			C23,194.1,22.2,193.8,21.4,193.6z"/>
		<path id="path37" fill="none" d="M90.6,211.7c0-0.2,0.1-0.4,0.1-0.5C90.7,211.4,90.6,211.5,90.6,211.7L90.6,211.7z"/>
		<path id="path39" fill="none" d="M52.3,207.2c0.1,0,0.2,0,0.3,0.1c0-0.2,0.1-0.5,0.1-0.8C52.6,206.7,52.5,207,52.3,207.2
			L52.3,207.2z"/>
		<path id="path41" fill="none" d="M116.2,182.4C116.1,182.4,116.1,182.4,116.2,182.4c0,0,0,0.1,0,0.1
			C116.1,182.4,116.1,182.4,116.2,182.4L116.2,182.4z"/>
		<path id="path43" fill="none" d="M3.2,182c0,0,0.1,0,0.1,0C3.3,182,3.2,182,3.2,182C3.2,182,3.2,182,3.2,182L3.2,182z"/>
		<path id="path45" fill="none" d="M42.5,195.6c1.3-0.1,2.5-0.3,3.8-0.5c-0.2,0-0.4,0.1-0.6,0.1C44.6,195.3,43.5,195.4,42.5,195.6
			L42.5,195.6z"/>
		<path id="path47" fill="none" d="M15.4,144.2c-0.2-0.2-0.3-0.5-0.5-0.8C14.9,143.9,15,144,15.4,144.2L15.4,144.2z"/>
		<path id="path49" fill="none" d="M6.2,185C6.2,185,6.2,185,6.2,185c-0.2-0.2-0.4-0.5-0.5-0.7C5.8,184.5,5.9,184.8,6.2,185L6.2,185
			z"/>
		<path id="path91" fill="none" d="M256.8,195.3c0.1-0.1,0.2-0.2,0.2-0.3c-0.2,0-0.4,0-0.5-0.1C256.6,195.1,256.7,195.2,256.8,195.3
			L256.8,195.3z"/>
		<path id="path93" fill="none" d="M251.3,205.6c0.1-0.1,0.3-0.2,0.4-0.4c0.5-0.5,0.9-1.1,1.2-1.6c-0.1,0.1-0.1,0.1-0.2,0.2
			C252.2,204.4,251.8,205.1,251.3,205.6L251.3,205.6z"/>
		<path id="path95" fill="none" d="M81.2,202.6c-0.3-0.4-0.9-0.6-1.6-0.6c-1.1,0.2-2.3,0.7-2.9,1.7
			C77.9,202.4,80.2,201.9,81.2,202.6L81.2,202.6z"/>
		<path id="path97" fill="none" d="M272.8,207.2c0.5-0.1,0.9-0.3,1.1-0.8c0-0.1,0-0.1,0.1-0.2C273.8,206.6,273.4,207,272.8,207.2
			L272.8,207.2z"/>
		<path id="path99" fill="none" d="M261.1,195.1c0,0.1,0.1,0.1,0.1,0.2c0-0.1,0.1-0.2,0.1-0.2C261.2,195.1,261.1,195.1,261.1,195.1
			L261.1,195.1z"/>
		<path id="path101" fill="none" d="M273.6,203.8c0.1,0,0.1,0,0.2-0.1C273.7,203.7,273.6,203.7,273.6,203.8
			C273.5,203.7,273.6,203.8,273.6,203.8L273.6,203.8z"/>
		<path id="path103" fill="none" d="M262.3,201.9c-0.1-0.2-0.2-0.5-0.3-0.7C262.1,201.4,262.2,201.7,262.3,201.9L262.3,201.9z"/>
		<path id="path105" fill="none" d="M231.6,216c0,0,0.1,0,0.1,0c0,0-0.1-0.1-0.1-0.1C231.6,215.9,231.6,215.9,231.6,216L231.6,216z"
			/>
		<path id="path107" fill="none" d="M122.7,188.2c0.2,0.7,0.4,1.3,0.6,2c-0.1-0.5-0.3-0.9-0.4-1.4
			C122.9,188.6,122.8,188.4,122.7,188.2L122.7,188.2z"/>
		<path id="path109" fill="none" d="M90.5,211.9c-0.1,0.7-0.2,1.3,0,1.9c0.2,1,0.7,1.6,1.3,1.9C90.6,214.9,90.2,213.5,90.5,211.9
			L90.5,211.9z"/>
		<path id="path111" fill="none" d="M247.2,193.8c0.1,0,0.2,0,0.4,0c-1,1.9-1.7,3.3-3.3,4.8c1.7-0.9,4-1,5.8-0.2
			c0.1,0.1,0.3,0.1,0.4,0c0.1-0.1,0.1-0.3,0.3-0.7c0.4-0.7,0.2-1.6,0.3-2.4c-0.2-0.8-0.6-1.4-1-1.5h0.8c-1-0.2-1.9-0.5-2.6-1.1
			C248,193.4,247.6,193.7,247.2,193.8L247.2,193.8z"/>
		<path id="path113" fill="none" d="M211.8,217.6c-0.7,1.2,0.3,2,1.5,2.1c-0.2,0-0.3-0.1-0.5-0.1
			C211.7,219.3,211.5,218.5,211.8,217.6L211.8,217.6z"/>
		<path id="path115" fill="none" d="M243.7,199c-0.1,0.1-0.9,0.7-1.2,0.9C243.1,200,243.6,199.6,243.7,199L243.7,199z"/>
		<path id="path117" fill="none" d="M215.3,210.7c0.1,0.2,0.1,0.4,0.2,0.7c0.1-0.3,0.2-0.5,0.3-0.7
			C215.7,210.7,215.5,210.7,215.3,210.7L215.3,210.7z"/>
		<path id="path119" fill="none" d="M193,218.2C193,218.2,192.9,218.2,193,218.2c-0.1,0.2-0.1,0.5,0,0.7
			C193,218.7,193,218.5,193,218.2L193,218.2z"/>
		<path id="path121" fill="none" d="M91.8,209.1C91.8,209.1,91.8,209.1,91.8,209.1c0-0.1-0.1-0.1-0.1-0.2c-0.1,0.2-0.2,0.3-0.3,0.5
			C91.5,209.3,91.7,209.1,91.8,209.1L91.8,209.1z"/>
		<path id="path123" fill="none" d="M105,196.9c-0.1,0.1-0.1,0.2-0.2,0.3c0.1,0,0.1,0,0.2,0C104.9,197.1,105,197,105,196.9
			L105,196.9z"/>
		<path id="path125" fill="none" d="M81,204.8c-0.1,0.1-0.2,0.1-0.3,0.2C80.9,204.9,81,204.9,81,204.8L81,204.8z"/>
		<path id="path127" fill="none" d="M80.7,205c-0.1,0.1-0.3,0.1-0.4,0.1C80.5,205.1,80.6,205,80.7,205L80.7,205z"/>
		<path id="path129" fill="none" d="M76.6,203.8C76.6,203.8,76.6,203.8,76.6,203.8C76.6,203.9,76.6,203.9,76.6,203.8
			C76.6,203.8,76.6,203.8,76.6,203.8L76.6,203.8z"/>
		<path id="path131" fill="none" d="M117.2,193.8C117.2,193.8,117.2,193.8,117.2,193.8C117.2,193.8,117.2,193.8,117.2,193.8
			C117.2,193.8,117.2,193.8,117.2,193.8L117.2,193.8z"/>
		<path id="path133" fill="none" d="M81.3,204.6c0,0-0.1,0.1-0.1,0.1C81.2,204.6,81.2,204.6,81.3,204.6L81.3,204.6z"/>
		<path id="path135" fill="none" d="M93.3,203.6c-0.1,0-0.3-0.1-0.4-0.1c0,0,0.1,0,0.1,0C93.1,203.6,93.2,203.6,93.3,203.6
			L93.3,203.6z"/>
		<path id="path137" fill="none" d="M93.4,210.1c0.4,0.1,0.7,0.2,1.2,0c0.1,0,0.1-0.1,0.2-0.1C94.4,210.2,93.9,210.2,93.4,210.1
			L93.4,210.1z"/>
		<path id="path139" fill="none" d="M92.5,209.8c0.1,0,0.1,0,0.2,0.1c-0.1-0.1-0.3-0.2-0.4-0.3C92.4,209.7,92.5,209.8,92.5,209.8
			L92.5,209.8z"/>
		<path id="path141" fill="none" d="M95.1,209.8C95.1,209.8,95.1,209.8,95.1,209.8L95.1,209.8z"/>
		<path id="path143" fill="#CC9966" d="M211.6,110.8C211.6,110.8,211.5,110.8,211.6,110.8l-0.1,0
			C211.5,110.8,211.5,110.8,211.6,110.8L211.6,110.8z"/>
		<path id="path145" fill="#CC9966" d="M194.8,112.6c0.2-1.3,0.4-1.7,1-1.8c-0.5-0.1-0.6-0.3-0.8-1.5c-0.1-1-0.6-1.8-1.3-2.6
			c-1.5-1.7-3.6-2.1-5.7-1.7c-0.3,0.1-0.6,0.1-0.9,0.2c3.9,0.5,6.8,5.2,5.7,8.9c-0.8,3.1-3.9,5.1-6.8,6.1c4.1,1.6,7.5-0.8,9-4.2
			c-0.4,0.2-0.9,0.4-1.5,0.3C194.3,115.3,194.6,113.8,194.8,112.6L194.8,112.6z"/>
		<path id="path147" fill="#CC9966" d="M206,131.1c0.3-1.3,1.9-2.6,2.4-4c0.3-0.8,0.6-1.5,0.7-2.3c0.2-0.9-0.1-1.9,0.2-2.8
			c0.4-0.8,1.2-1.5,1.5-2.4c0.3-0.8,0.4-1.8,0.4-2.6c0.1-2.3-0.7-4.5-2.1-6.2c0.4,0,0.7,0,1.1-0.1c-0.6-0.1-1.1-0.2-1.8-0.6
			c-1-0.5-1.7-0.8-2.8-1c-2.8-0.4-5.7-0.2-8.5,0c0.1,0.6,0.2,1.1,0.3,1.7c0,0.2,0,0.4-0.1,0.6c1.3-0.1,2.8-0.5,4.1-0.4
			c2.2,0.1,4.2,0.4,6.3,1.1c2.4,1.3,1.6,5.8,0.8,7.7c-0.5-0.6-1.8-0.9-2.2-1.3c-0.3-0.3-0.3-1.4-0.6-1.9c-0.6-1.1-2.1-2.4-3.4-2.2
			c-1.4,0.3-1.2,1.8-0.2,2.3c1,0.5,1.2,1.6,1.2,2.7c-0.1,2.2-2.4,2.2-2.9,4c-0.3,1.1,0.5,1.2,1.3,1.2c1.8,0,3.2-1.8,4-3.4
			c0.9,2.1,1.4,4,0.5,6.2c-0.6,1.5-1.9,2.4-2.7,3.8c-0.5,0.9-0.1,2-0.9,2.7c1.1-0.4,2.2-0.3,3.4-1.1c0.6-0.4,1.1-0.9,1.6-1.5
			c-0.2,0.1-0.3,0.2-0.5,0.2C206.3,131.6,205.5,132.9,206,131.1L206,131.1z"/>
		<path id="path149" fill="#FFB442" d="M194.4,143.4c-1.7,2.1-4.3,3.7-6.1,5.8c-2.4,2.9-4.3,6-6.1,9.2c-0.8,1.5-1.5,3.1-2.2,4.7
			c-0.4,0.8-0.7,1.7-1,2.6c-0.1,0.2-0.2,0.3-0.4,0.4c0.1,0,0.2,0,0.3,0c-3,8.8-4.3,18.9-0.5,27.7c2,4.9,6.8,8.7,11.6,10.9
			c9.5,4.3,21.3,4.3,31.4,2.7c4.9-0.8,9.5-2.3,13.7-4.9c2.4-1.5,4.4-3.3,6.6-5.1c1-0.9,2.2-1.4,2.8-2.4c0.4-0.8,0.8-1,1.3-1.1
			c-0.2,0-0.4,0-0.6,0c4.2-8.9,5.1-18.4,1.4-27.7h0.5c-0.4-0.1-0.7-0.3-1-0.9c-0.4-0.8-0.8-1.6-1.3-2.4c-1-1.6-2.2-3.2-3.4-4.7
			c-2.5-3-5.3-5.7-8.4-8.1c-3.2-2.5-6.6-4.8-9.9-7.2c-1.1-0.8-4.3-2.2-4.8-3.6c-0.3-0.7,0-0.8,0.4-0.6c0,0,0,0,0,0
			c-0.1,0-0.2-0.1-0.3-0.1c0,0,0.1,0,0.2,0c-0.1-0.1-0.2-0.2-0.3-0.3c-2.1-0.6-5.1-1.8-4-2.6c-0.8,0.1-3.4,0.7-3.2-0.6
			c-1,0.6-2.2,1.2-2.6-0.2c-0.3,2.1-5.5,3.3-8.5,3.7c-0.1,0-0.2,0.1-0.3,0.1c0.4,0,0.8,0,1.2,0C198.2,139.7,196.2,141.1,194.4,143.4
			L194.4,143.4z M218.2,152.4c-1,2.4-4.8,2.3-4.6-0.6C213.7,148.1,219.1,148.7,218.2,152.4L218.2,152.4z M202.2,146.6
			c2,0.7,4.5,2.4,5.1,4.6c0.1,0.5,0.2,0.9,0.3,1.4c0.4,2.8-1.8,7.3-4.7,8.2c-4.6,1.3-8.7-1.5-11.2-5.2c-2.6-3.8-1.5-8.9,3.6-9.8
			c0.8-0.1,1.6-0.1,2.4-0.1c0.3,0,0.4-0.9,0.6-1.2c0.5-0.8,1.5-1.3,2.5-1.2C202.5,143.5,202.8,145.2,202.2,146.6L202.2,146.6z"/>
		<path id="path151" fill="#FFB442" d="M174,185.3c0,0.3,0.1,0.7,0.4,1c-0.1-0.6-0.1-1.1-0.2-1.7C174.1,184.7,174,185,174,185.3
			L174,185.3z"/>
		<path id="path153" fill="#FFB442" d="M265.7,128.7c-0.7-0.7-1.3-1.5-2.1-2.1c0,0.1,0.1,0.1,0.1,0.2
			C264.4,127.4,265.1,128,265.7,128.7L265.7,128.7z"/>
		<path id="path155" fill="#FFB442" d="M209.8,134.2c-0.1,0-0.2-0.1-0.3-0.1c0,0.1,0,0.2,0,0.3C209.7,134.3,209.8,134.2,209.8,134.2
			L209.8,134.2z"/>
		<path id="path157" fill="#FFB442" d="M284.2,183.2C284.2,183.2,284.2,183.2,284.2,183.2c0-0.1,0-0.1,0-0.2
			C284.2,183.1,284.2,183.2,284.2,183.2L284.2,183.2z"/>
		<path id="path159" fill="#FFB442" d="M200.1,145.9"/>
		<path id="path161" fill="#FFB442" d="M284,163.4c-0.4-1.2-0.8-2.3-1.2-3.5c-0.9-2.6-1.7-5.1-2.8-7.6c-2.1-4.8-4.6-9.4-7.5-13.8
			h0.5c0-0.1-0.1-0.1-0.2-0.2c-1-0.4-1.3-1.3-2.3-2.5c-1-1.3-2.1-2.5-3.3-3.6c-1.3-1.2-2.6-2.5-3.8-3.9c-0.7-0.8-2.3-2.7-3.4-2.8
			c-1-0.1-2.1-0.9-3.1-1.1c-1.4-0.3-2.9-0.6-4.4-0.7c-1.5-0.1-6.4,0.8-7.4-0.3c-0.1,0-0.2,0.1-0.3,0.1c-1.1,1.1-3.8,4.4-5,3.2
			c-0.3,0.4-1.4,1.6-1.4,2c0,1.2-2.8,2.7-3.7,3.6c-1.4,1.4-2.9,2.8-4.1,4.4c-0.3,0.4-0.8,1.4-1,1.6c-0.2,0.2-0.5,0.3-0.8,0.3
			c0.2,0,0.4,0,0.7,0c-0.5,0.5-1,0.7-1.7,0.9c0,0,0,0,0,0.1c0.9,0.3-0.1,1.8-1,2.8c0,0,0,0.1,0,0.1c0,0.3-0.3,0.6-0.5,0.8
			c9.2,6,17.7,12.9,22.5,23c0.6,1.7,1.2,3.4,1.6,5.1c1.4,5.4,1,11.8-0.7,17c-0.2,0.8-0.5,1.5-0.8,2.3c-0.1,0.4-0.2,0.6-0.1,0.7
			c0.1,0.1,0.1,0.1,0.2,0.2c0.2,0.1,0.4,0.1,0.7,0.3c1,0.5,2.3,0.8,3.5,1c2.6,0.6,5.3,0.5,8,0.4c4.9-0.2,9.6-1,14-3.4
			c1.4-0.8,2.6-1.7,3.8-2.7c0.6-0.7,1.3-1.3,1.9-1.7c0.7-0.9,1.7-2.2,2.3-1.7c0.1-0.5-0.2-1.3,0.2-1.6c0.6-0.4,0.6-0.1,0.9-0.6
			c0.1-0.3-0.1-0.8,0-1.2c0.3-1,1.6-0.8,1.8-1.9c0.7-4.2,0-8.1-1.2-12.2c0.1,0,0.2,0,0.3,0c0-0.1,0-0.1,0-0.2
			C284.5,165.6,284.5,164.9,284,163.4L284,163.4z M252.6,143c-0.9,0.8-3.1,0.8-3.9-0.3c-1.1-1.4-0.1-3.9,1.5-4.4
			C252.6,138.4,254.7,141.1,252.6,143L252.6,143z M265.4,156c-2.7,1.8-8.2,0.8-10.3-1.6c-2.8-3.3,1.7-9.7,5.2-10.5
			c1.2,0.1,2.5,0.5,3.5,1.1c1,0.5,1.1,1,1.5,1.6c0.8,1.2,1,2.5,1.7,3.5C268.3,152,267.3,154.7,265.4,156L265.4,156z M266.5,142
			c-0.1-3,4.5-4.2,4.7-0.9C271.3,143.9,266.8,145,266.5,142L266.5,142z"/>
		<path id="path163" fill="#FF6600" d="M264.6,154.6c4.3-1.8-0.8-9.4-4.4-8.9c-1.6,0.9-2.9,2.2-3.5,4c-0.3,0.9-0.8,3.3,0.2,3.9
			C258.8,154.9,262.5,155.5,264.6,154.6L264.6,154.6z"/>
		<path id="path165" fill="#FF6600" d="M202.4,159c1-0.5,1.6-1.7,2.3-2.5c0.7-0.9,0.8-0.5,1.2-1.8c0.2-0.8,0.5-1.8,0.2-2.6
			c-0.5-0.6-0.5-1.4-1-2c-0.5-0.7-1.3-1.2-2-1.6c-1.9-1.2-3.9-1.1-6.1-0.8c-1.9,0.3-4.3,0.3-4.9,2.5c-0.5,1.5,0.5,3.6,1.4,4.7
			C195.6,157.4,198.9,160.8,202.4,159L202.4,159z"/>
		<path id="path167" fill="#FF6600" d="M223.8,213.3c-2-0.2-4.6-0.4-4.2-3c-1.3,0-2.5,0.2-3.8,0.3c-0.1,0.2-0.2,0.5-0.3,0.7
			c0.2,0.9,0.2,1.6-0.2,2.5c-0.7,1.6-2.3,2.1-3.3,3.5c-0.1,0.1-0.1,0.2-0.2,0.3c-0.2,0.9-0.1,1.7,1,2c0.2,0,0.3,0.1,0.5,0.1
			c0.5,0.1,1,0.1,1.5-0.1c0.5-0.2,1.7-0.8,1.9-1.3c0.4-0.9-0.2-1.8,0.9-2.4c2-1,1.3,1.2,2,2c0.8,0.9,5,3.4,5,1
			c0-0.8-0.7-1.4-1.3-1.9c-0.6-0.5-3.1-1.6-3.3-2.2c-0.7-1.9,3.9,0.8,4.6,0.7c2.2-0.2,4.9,1.1,7,0.3c0,0,0-0.1,0-0.1
			C229.7,213.5,226.6,213.6,223.8,213.3L223.8,213.3z"/>
		<path id="path169" fill="#FF6600" d="M245.8,204.8c0,0.1,0,0.1,0,0.2c0-0.1,0.1-0.1,0.1-0.2L245.8,204.8L245.8,204.8z"/>
		<path id="path171" fill="#FF6600" d="M248.4,199.3c-1.1,0-3.2-0.7-4,0.3C245.7,199.4,247.1,199.2,248.4,199.3L248.4,199.3z"/>
		<path id="path173" fill="#FF6600" d="M250.7,197.7c-0.2,0.4-0.1,0.6-0.3,0.7c0.7-0.1,0.8-1.8,0.5-3.1
			C250.9,196.1,251.1,197,250.7,197.7L250.7,197.7z"/>
		<path id="path175" fill="#FF6600" d="M251.9,194.4c0.1,1.3,0.2,2.6,0.2,3.9c0,1.7-1.9,1.2-2.9,1c0.1,0.1,0.3,0.1,0.4,0.2
			c0,0,0.5,0.9-0.1,0.8c-0.7,0-1.3,0-2,0.1c-1.4,0.1-2.8,0.3-4.2,0.7c-0.6,0.2-2.4,0.4-2.5,1.2c-0.1,1.5,0.7,1.1,2,1.1
			c1.2,0,2.8,0.4,3.9,0c0.9-0.3,1.8-1.4,2.6-2.1c0.4-0.3,2-1,2.4-0.4c0.5,0.7-1.8,1.4-2.2,1.6c-1.4,0.7-4.4,3.7-1.5,4.1
			c1.2,0.2,2.4-0.4,3.4-1.1c0.5-0.6,0.9-1.2,1.4-1.8c0.1-0.1,0.1-0.1,0.2-0.2c0.5-1,1-2,2-2.8c0.4-0.3,0.4-2.6,0.6-3.2
			c0.3-0.8,0.7-1.6,1.2-2.3c-0.1-0.1-0.2-0.3-0.3-0.4C254.9,194.8,253.4,194.7,251.9,194.4L251.9,194.4z"/>
		<path id="path177" fill="#FF6600" d="M257,196.4c-0.1,0.3-0.2,0.7-0.3,1.1C256.9,197.1,257,196.7,257,196.4L257,196.4z"/>
		<path id="path179" fill="#FF6600" d="M266.3,196.5c0.2,0.3,1.4,0.3,1.8,0.3c0.8,0.1,1.7,0.2,2.5,0.3c-0.3-0.1-0.6-0.1-0.9-0.2
			c-0.8-0.2-3.3-0.4-3.4-1.3C266.2,196,266.2,196.3,266.3,196.5L266.3,196.5z"/>
		<path id="path181" fill="#FF6600" d="M265.7,194.7c-1.5,0.1-3,0.2-4.4,0.4c0,0.1-0.1,0.2-0.1,0.2c1.2,2,0.6,3.5,0.8,5.6
			c0,0.1,0,0.2,0.1,0.3c0.1,0.2,0.2,0.5,0.3,0.7c0.6,1.1,2,2.3,3,2.9c1.1,0.7,5.4,2.8,7.5,2.4c0.5-0.2,0.9-0.6,1.2-1
			c0.4-1.5-2.7-3.1-3.7-3.5c-1.3-0.5-3.8-0.6-4.7-1.8c-1.1-1.4,3.3-0.5,3.5-0.3c1.6,0.8,3.1,1.7,4.4,3.1c0.1,0,0.2,0,0.3,0
			c1.6-0.3,7.3,0,4.6-2.4c-1.6-1.4-4-1.5-6-1.9c-0.7-0.1-5.3-0.7-3.8-1.4c-1-0.2-2-0.3-3-0.5C265,197.4,265.6,195.2,265.7,194.7
			L265.7,194.7z"/>
		<path id="path183" fill="#FF6600" d="M271.7,198.2c2.6,0.3,5.2,1.3,7.4,2.5C279.1,198,273.6,198.2,271.7,198.2L271.7,198.2z"/>
		<path id="path203" fill="#FFB442" d="M15.4,138.5C15.4,138.5,15.4,138.5,15.4,138.5C15.4,138.5,15.4,138.5,15.4,138.5L15.4,138.5z
			"/>
		<path id="path205" fill="#FFB442" d="M42.5,195.6c1-0.1,2.1-0.2,3.2-0.4c0.2,0,0.4-0.1,0.6-0.1c0.9-0.2,1.9-0.4,2.8-0.7
			c0.8,0.5,3.1-0.5,4.3-0.5h-0.7c5.3-1.6,12.2-2.9,14.9-8.4c1.3-2.8,1.7-6.4,1.4-9.4c-0.2-2.1-0.5-3.7-1.2-5.7
			c-0.3-0.8-0.9-3.9-1.7-4.1c0.2,0,0.5,0,0.8,0c-0.5-0.1-1.1-0.3-1.6-0.5c-1.3-0.7-2.5-1.8-3.6-2.8c-2.3-2-4.7-4.2-6.8-6.4
			c-2.3-2.5-3.6-5.4-5.4-8.2c-1.9-3-3.8-6.2-4.8-9.7c0.5,0,0.8,0,1,0c-1.2-0.1-1.3-0.5-1.7-2c-0.3-1.1-0.6-2.3-0.9-3.4
			c-0.5-2.2-0.7-4.4-0.7-6.6c-0.6,0.1-1.1-0.5-1.6-0.9c-0.5-0.4-1.8-0.1-2.4-0.1c-1.8,0-3.6,0.1-5.4,0.2c-1.4,0.1-2,1.4-3.1,1.5
			c-0.7,0.1-1.2-0.3-1-1c-0.4,0.5-2.6,2.3-2.6,2.7c-0.2,2-1.1,1.9-2.8,3c-1.5,1-3,2.2-4.2,3.5c-0.7,0.7-1.3,1.4-1.8,2.3
			c-0.5,0.8-0.8,1-1.2,1.1c0.2,0,0.4,0,0.6,0c0,0.1-0.2,0.3-0.2,0.4c4.1-0.2,1.2,6.2-1.5,3.8c-0.1,0.4-0.1,0.6-0.2,0.8
			c0.1,0.3,0.3,0.5,0.5,0.8c0.2,0.1,0.4,0.2,0.7,0.4c0.7,0.4,1.2,0.5,1.4,1.2c0.2,0.6,1.2,1.3,1.6,1.8c0.6,1,0.9,1.9,1.1,3
			c0.2,1.7-0.4,3.7-2.2,4c-1.8,0.3-3.5,0.4-5.3,0.1c-1-0.2-2-0.4-3-0.8c-1.1-0.4-1.8,1.1-2.4,1.9c-1.3,1.8-2.5,3.8-3.3,5.9
			c-0.4,1.1-0.7,2.2-1,3.3c-0.2,0.7-0.3,0.9-0.6,1c0.1,0,0.3,0,0.4,0c-0.4,1.9-0.6,3.9-0.5,5.8c0,1.6,0.8,3.4,0.6,4.9
			c0,0.5-0.3,0.8-0.5,1.2c-0.5,1.3,0,0.6,0.5,1.3c0.7,0.9,0.5,1.4,0.4,2.6c0,0,0.1,0.1,0.1,0.1c1.4,0.2,1.7,1.3,2.3,2.3
			c0.2,0.2,0.4,0.5,0.6,0.7c1.4,1.4,2.5,2.8,4.1,4c3.3,2.4,7.1,3.6,11,4.6c0.8,0.2,1.6,0.4,2.4,0.6C30,195,36.3,196,42.5,195.6
			L42.5,195.6z M25.9,141.8c1.1-1.1,2.9-1.7,4.1-0.2c0.6,0.8,0.7,2.3,0.1,3.2C28.3,147.4,24.8,144.4,25.9,141.8L25.9,141.8z"/>
		<path id="path207" fill="#FF6600" d="M9.2,151.8c1.1,0.5,2.2,0.9,2.9,1c1.9,0.4,5.5,1.2,6.5-0.9c1.4-3.3-3.1-4.3-4.3-6.3
			c-2.5-0.9-6.7-0.4-8.2,2.1c-0.7,1.2,0.2,2.3,1.6,3.3c0.3,0.2,0.7,0.3,0.9,0.5C8.8,151.5,9,151.6,9.2,151.8L9.2,151.8z"/>
		<path id="path209" fill="#FF6600" d="M17.5,204c0.8-0.4,1.8-0.5,2.7-0.6c1.1-0.2,4.1-1.2,4.8-0.6c-0.1,0-0.1,0.1-0.2,0.1
			c-1.4,0.8-2.8,1.4-4.4,1.8c-1.4,0.4-5,1.1-4,3.5c1,2.4,4.8,0.1,6-0.4c3.2-1.4,3-1.5,5.3,0.6c1.3,1.1,3.5,2.9,5.4,2.1
			c1.7-0.7,0.7-2.7,0-3.8c-0.7-1-1.6-1.9-2.7-2.6c-1.4-0.9-1.2-0.9-1.4-2.5c-0.2-1.2-0.3-2.4,0.3-3.6c0-0.3-0.1-0.5-0.2-0.7
			c-1-0.2-1.9-0.4-2.8-0.9c0,2.1-1.1,5-3.5,5.3c-2.1,0.3-4.2,0.5-6.4,0.5c-1.8,0-4.3-0.6-5.9,0c-1.2,0.5-2.7,2-1.3,3
			c1.3,0.9,4.7,0.3,6.3,0.3C16,205.7,17,204.3,17.5,204L17.5,204z"/>
		<path id="path211" fill="#FF6600" d="M15.2,207c0,0,0.1,0,0.1,0c0,0,0,0,0,0c0,0,0,0,0,0C15.3,207,15.3,207,15.2,207L15.2,207z"/>
		<path id="path213" fill="#FF6600" d="M53.5,205.6c0,0.1,0,0.2,0,0.3c0.3-0.1,0.7-0.2,1.1-0.5c0,0,0,0,0,0
			C54.3,205.6,53.9,205.6,53.5,205.6L53.5,205.6z"/>
		<path id="path215" fill="#FF6600" d="M46.1,197c-0.7,0.1-1.4,0.2-2.2,0.4c-1.4,0.2-2.8,0.3-4.3,0.5c0.3,1.7,0.1,2.9-0.7,4.3
			c-0.8,1.4-2.1,2.4-2.4,4c-0.5,2.5,2.5,2.3,3.8,0.8c0.6-0.7,0.8-1.5,1.2-2.2c0.8-1.6,1.2-0.7,2.7,0.2c1.8,1.2,3.7,1.9,5.8,2.5
			c0.5,0.2,1.4-0.4,2.3-0.3c0.2-0.2,0.3-0.4,0.4-0.7c0.1-0.6,0.1-1.3-0.7-1.4c0.1,0,0.3,0,0.4-0.1c-0.5-1.3-1.7-1.4-2.9-1.8
			c-0.4-0.1-4.6-1.3-4.7-1.7c0-1.3,3.6,0.1,4.1,0.3c1.4,0.5,3,0.8,4,2.3c0.6,0.9,2.6,0,2.4-1c-0.3-1.3-2.7-1.5-3.7-1.8
			C49.2,200.6,45.2,200,46.1,197L46.1,197z"/>
		<path id="path217" fill="#FF6600" d="M49.1,199.5c0.6,0.3,1.2,0.4,1.9,0.6c-1.5-0.6-3.6-0.9-3.9-2.4c0-0.1-0.1-0.2-0.1-0.3
			C46.8,198.4,48.4,199.2,49.1,199.5L49.1,199.5z"/>
		<path id="path219" fill="#CC9966" d="M185.8,144.6c0.1,0,0.2-0.1,0.3-0.1c3.8-4.4,8.2-10.8,6.1-16.1c-0.1-0.4-0.1-0.7-0.1-0.8
			c-0.5-0.6-1.2-1.2-2-1.6c-0.3,0-0.5,0.1-0.8,0.2c3,4.5,1,9.4-2.2,13.2c-0.5,0.6-1,1.2-1.6,1.7c-0.5,0.4-1.8,0.9-2.1,1.4
			c-0.1,0.2-0.2,0.3-0.2,0.4c0.3,0.6,0.6,1.1,0.7,1.6C184.6,144.7,185.3,144.8,185.8,144.6L185.8,144.6z"/>
		<path id="path221" fill="#FF6600" d="M154.1,193.8C154,193.8,154,193.8,154.1,193.8c0.9,0,1.9,0,2.9,0H154.1L154.1,193.8z"/>
		<path id="path223" fill="#FF6600" d="M134.4,193.8c0.2,0,0.3-0.1,0.4-0.1c-2.5-1.1-1.9-11-2.1-12.9c-1.5,0.8-2.9,1.4-4.6,1.9
			c-1.8,0.5-5,1.2-6.8,0.6c0.5,1.6,1,3.2,1.5,4.9c0.1,0.2,0.1,0.4,0.2,0.6c0.1,0.5,0.3,0.9,0.4,1.4c0.4,1.2,0.7,2.5,1.1,3.7
			c0.4,1,1,2.1,1.3,2.8c0.4,0.6,0.7,0.5,0.2,1.5c-0.7,1.3-0.7,2.9,0,4.3c0.5,0.9,0.5,1.6,0.9,2.3c0.5,1,1.6,1.9,2.3,2.8
			c1.4,1.7,2.5,3.7,4,5.3c1.7,1.8,4.6,4.2,7.2,3.2c4-1.5-1.2-7.5-2.5-9.4c1.1,1.2,2.8,0.4,4.3,0.6c2.4,0.2,3.9,1.8,6.1,2.5
			c2.7,0.9,5.5,1.4,8.4,1.7c3.2,0.3,9.9,1.2,11-3.1c0.6-2.1-0.2-3.3-2.2-3.9c-2.8-0.7-5.7-1.4-8.5-1.9c-2.8-0.5-5.7-0.9-8.6-1.2
			c-2.6-0.3-4.3-0.8-6.7-1.3c4.7,0.1,9.4-0.1,14.1,0.6c1.4,0.2,1.8,0.4,3.1-0.2c1.1-0.4,2.2-0.8,3.3-1.2c1.7-0.6-2.1-4.1-2.7-4.4
			c-3.7-1.9-8.5,0.2-12.4,0.6c-2.2,0.2-5,1-7.2,0.6c-1.1-0.2-2.1-0.4-3.2-0.5C135.2,195.5,135.1,195.3,134.4,193.8L134.4,193.8z"/>
		<path id="path225" fill="#FF6600" d="M135.4,193.9C135.4,193.9,135.4,193.9,135.4,193.9C135.4,193.9,135.3,193.9,135.4,193.9
			C135.3,193.9,135.4,193.9,135.4,193.9L135.4,193.9z"/>
		<path id="path227" fill="#FF6600" d="M193,218.9c0.1,0.2,0.3,0.4,0.5,0.6c1,0.8,3.5-0.1,4.5-0.7c1.1-0.8,1.4-2,2.4-2.8
			c0.4-0.3,0.9,0.1,1.1,0c0.3-0.2,1.7-1.4,1.7-1.7c0-1.1-1-1.9-1-3.2c0.2-0.2,0.4-0.5,0.6-0.7c-1.4-0.2-2.8-0.5-4.2-0.7
			c0.4,1.5,0.2,2.9-1.4,2.9c-1.9,0-3.8,0.5-5.5,1.2c-1,0.4-4.1,1.6-3.5,3.2c0.5,1.3,3,0.3,3.7,0.4c0.5-1.7,2.4-2.7,4-3.1
			c1.4-0.4,3.5-0.5,1.5,0.8c-0.9,0.6-4.1,1.8-4.5,3.2c0,0,0,0,0.1,0C193,218.5,193,218.7,193,218.9L193,218.9z"/>
		<path id="path229" fill="#FF6600" d="M188,212.9c-0.8,0.5-3,2-1,2.6c0.6-1.7,2.1-2.5,3.7-3.1C189.9,212.5,188.5,212.2,188,212.9
			L188,212.9z"/>
		<path id="path231" fill="#FF6600" d="M94.1,216.5c-0.1,0-0.3,0-0.4-0.1C93.8,216.5,93.9,216.5,94.1,216.5L94.1,216.5z"/>
		<path id="path233" fill="#FF6500" d="M118,196.9c-0.3-1-0.8-2.1-1.3-3.1c0.2,0,0.3,0,0.5,0c0,0,0,0,0,0c-1.2-0.5-1.3-3.6-1.4-4.8
			c-0.2-2.2-0.2-4.4,0.3-6.5c0,0,0-0.1,0-0.1c-0.5,0.1-0.8-0.1-1.3-0.1c-0.9,0-1.9,0.2-2.8,0.3c-2.4,0.1-4.6-0.1-6.9-0.8
			c0.4,2.1,0.7,4.3,0.8,6.5c0,1.2,0,2.3-0.1,3.5c0,0.7,0.2,1.7-0.3,2.1c0.1,0,0.1,0,0.2,0c-0.2,1.4-0.3,2.4-0.7,3.1
			c0,0.1,0,0.2,0,0.3c-0.1,0-0.1,0-0.2,0c-0.4,0.4-1.1,0.7-2.4,0.6c-3.1-0.2-5.8,0-8.9,0.2c-4.9,0.2-10.8-0.3-14.9,3
			c-0.9,0.7-1.6,1.7-2,2.8c0,0,0,0,0,0.1c0,0,0,0,0,0c-0.3,0.9-0.4,1.8-0.2,2.7c0.4,1.6,3.3,2.2,4.7,2.3c5,0.5,8.9-2.2,13.4-3.5
			c-1,0.8-2,2.1-2.8,3.5c0,0.1,0.1,0.1,0.1,0.2c0,0,0,0,0,0c-0.1,0-0.3,0.2-0.4,0.4c-0.3,0.6-0.5,1.1-0.7,1.7
			c-0.1,0.2-0.1,0.4-0.1,0.5c0,0.1,0,0.1,0,0.2c-0.3,1.6,0,3,1.3,3.9c1.6,0.8,4,0,5.5-0.6c2.4-1,4.3-3.1,5.8-5.2
			c0.6-0.9,3.7-7,4.9-4.8c0.6-0.2-0.1,2.3-0.2,3c-0.4,3.3,0.2,10.5,4.6,10.9c2.8,0.3,4-2,3.9-4.4c-0.1-3-0.2-5.9-0.2-8.9
			c0-1.2,0-2.5,0.4-3.4c0.2-0.4,0.7-1.1,1-1.7C118.4,199.2,118.6,198.6,118,196.9L118,196.9z M76.7,203.7c0.6-1,1.8-1.6,2.9-1.7
			c0.7,0,1.2,0.2,1.6,0.6C80.2,201.9,77.9,202.4,76.7,203.7L76.7,203.7z M93,203.5C92.9,203.5,92.9,203.5,93,203.5
			c0,0,0.2,0,0.3,0.1C93.2,203.6,93.1,203.6,93,203.5L93,203.5z M92.5,209.8c0,0-0.1-0.1-0.2-0.2c0.1,0.1,0.3,0.2,0.4,0.3
			C92.7,209.8,92.6,209.8,92.5,209.8L92.5,209.8z M94.6,210.1c-0.5,0.2-0.8,0.1-1.2,0c0.5,0.1,1,0.1,1.4-0.1
			C94.7,210,94.7,210.1,94.6,210.1L94.6,210.1z M107.6,184.3c-0.1-0.1-0.2-0.3-0.3-0.3h0.4C107.7,184,107.6,184.2,107.6,184.3
			L107.6,184.3z"/>
		<path id="path235" d="M212.1,96.9c1-4.6,1.2-9.1,0.3-13.8c-0.4-2-1.5-4.1-0.9-6c0.6-1.8,0.8-3.6,0.8-5.6c0-2.3-0.4-4.7-1.5-6.7
			c-0.5-1.1-2.1-4.4-3.4-4.3c0-1.7-0.1-3.4-0.5-5.1c-0.4-1.5-0.9-2.8-1.9-4c-0.3-0.4-1.3-1-1.5-1.4c-0.2-0.5,0.2-1.8,0.2-2.3
			c0.2-2.8,0-6.6-2.4-8.5c-3-2.3-7-0.5-10.1,0.6c-3.6,1.3-6.9,3.2-10.1,5.4c-4.2,3-8.5,6.3-11.8,10.3c0,0,0,0,0.1,0
			c-0.1,0-0.1,0.1-0.2,0.1c-0.8,0.9-1.5,1.7-2.2,2.6c-0.7,0.9-2.5,4.6-3.6,4.5l-2,5.6c0.3-2.5,3.9-4.3,5.3-6.3
			c1.7-2.3,3.7-4.4,5.7-6.6c0.7-0.3,1.3-1.5,1.9-2c1.6-1.5,3.2-3,5-4.3c3.2-2.4,6.7-4.7,10.4-6.3c2.5-1.1,7-3.9,9.8-2.3
			c2.4,1.4,2.4,6,2.1,8.5c-0.8-0.3-2.1-0.6-2.7,0.1c1.7,0.6,3.1,1.8,4.3,3.2c0.5,0.6,0.8,1.4,1.3,2c0.6,0.9,0.8,1,1.4,1.1h-0.9
			c1.6,3.4,1.5,8.2,0.6,11.8c1.4-0.4,1.5-3.5,1.7-4.7c3.2,2.8,2.9,9.1,2.7,12.8c-0.2-0.5-1.1-2.7-1.7-2.8c-1.4-0.1-0.3,2.9-0.2,3.4
			c0.4,1.5,1.1,2.9,1.5,4.4c0.2,0.8,0.4,1.6,0.6,2.5c0,0.1,0.1,0.2,0.3,0.2h-0.2c0.5,2.3,0.7,4.9,0.6,7.3c-0.1,2.3-0.9,4.3-1.1,6.6
			c-0.2,2.6,1.4,5.4,2.1,7.9c0.4,1.3,0.6,2.7,0.9,4c0.3,2,0.2,2,2.3,2c-0.4-2.4-0.9-4.8-1.5-7.2C213.1,101.4,211.7,99.2,212.1,96.9
			L212.1,96.9z"/>
		<path id="path237" d="M208.6,134.6c0.4,1.4,1.6,0.8,2.6,0.2c-0.2,1.4,2.3,0.8,3.2,0.6c-1.1,0.8,1.9,2.1,4,2.6
			c0.8,0.2,1.4,0.3,1.7,0.3c-1.2-0.8-2.4-1.6-3.6-2.3c-1.3-0.7-0.9-0.8-0.5-1.9c0.7-2.3,1.1-4.8,1.2-7.2c0.2-2.8,0.3-6.3-0.7-9
			c-0.4-1-0.8-1.3-0.8-2.5c-0.1-1.6-0.3-3.2-0.5-4.8h-1.9c0.1,1.3,0.2,2.7,0.3,4c-0.3-1.1-0.6-2.3-1.2-3.3c-0.2-0.3-0.5-0.5-0.8-0.6
			c0,0-0.1,0-0.1,0h0.1c0.1,0,0.3,0,0.4,0c-1.7-3-5.9-4.2-9.1-4.2c-2,0-4.1,0.2-6,1.2c0,0-2.9-3.2-3.7-3.6
			c-3.3-1.8-7.9-0.4-11.2,0.8c-4.3,1.5-8.1,3.4-11.9,5.9h0c0,0-0.1,0-0.2,0.1c-1.1,0.6-2.3,1.2-3.3,1.9c-1.1,0.7-5.9,3.7-5.7,5.1
			c0.2,1.4,5-2.4,5.6-2.8c2.3-1.5,4.7-2.9,7.1-4.2c-0.2,0-0.3,0-0.5,0c0.5-0.1,1-0.2,1.4-0.4c1.5-0.8,3-1.5,4.6-2.2
			c2.5-1,5.2-2.2,7.9-2.8c0.3-0.1,0.6-0.2,0.9-0.2c2.2-0.4,4.2,0,5.7,1.7c0.7,0.7,1.1,1.6,1.3,2.6c0.1,1.1,0.2,1.4,0.8,1.5
			c-0.6,0.1-0.8,0.5-1,1.8c-0.2,1.3-0.5,2.7-1.2,3.8c0.6,0,1-0.1,1.4-0.3c1.5-0.8,2.1-2.9,2.3-4.6c0-0.2,0-0.4,0.1-0.6
			c-0.1-0.6-0.2-1.1-0.3-1.7c2.8-0.2,5.7-0.4,8.5,0c1.1,0.1,1.9,0.5,2.8,1c0.7,0.4,1.2,0.6,1.8,0.6c-0.4,0-0.7,0.1-1.1,0.1
			c1.4,1.8,2.2,4,2.1,6.2c0,0.8-0.1,1.8-0.4,2.6c-0.4,0.9-1.2,1.5-1.5,2.4c-0.4,0.9-0.1,1.8-0.2,2.8c-0.1,0.8-0.4,1.6-0.7,2.3
			c-0.5,1.4-2.1,2.7-2.4,4c-0.5,1.8,0.4,0.5,1.4,0.4c0.2,0,0.3-0.1,0.5-0.2c1.2-0.8,2.4-3.8,2.7-4.7c0.3-0.8,0.2-1.8,0.5-2.5
			c0.3-0.7,0.9-1.1,1.3-1.8c0.7-1.2,1-2.7,1.3-4.1c0.1,1.7,1.2,3.3,1.2,4.8c0,1.8,0,3.8-0.6,5.5c-0.4,1.1-0.9,2.1-1.5,3
			c-0.3,0.5-0.8,1.3-1.1,1.7c-0.3,0.4,0,0.4-0.8,0.7c-0.3,0.1-0.6,0.2-0.9,0.4c-0.1,0-0.2,0.1-0.3,0.1c0-0.1,0-0.2,0-0.3
			c0.3-2.8-2.3,0.7-3.3,1.2c-2.6,1.2-5.5,1.8-7.9,3.3c0.4,0,0.9,0,1.6-0.1C203.1,138,208.3,136.7,208.6,134.6L208.6,134.6z
			 M212.8,134.7"/>
		<path id="path239" d="M272.6,138.5c2.9,4.4,5.4,9,7.5,13.8c1.1,2.5,1.9,5,2.8,7.6c0.4,1.2,0.8,2.3,1.2,3.5
			c0.5,1.5,0.5,2.2,1.2,2.5c0.3,0.1,0.7,0.2,1.4,0.2c-2.9-9.7-6.6-19.3-12.4-27.7H273C272.9,138.5,272.7,138.5,272.6,138.5
			L272.6,138.5z"/>
		<path id="path241" d="M288.1,172.5c-0.1-1.4-0.5-2.8-0.8-4.1c-0.4-1.8-0.4-2.2-2-2.3c-0.1,0-0.2,0-0.3,0c1.2,4.1,1.9,7.9,1.2,12.2
			c-0.2,1.1-1.5,0.9-1.8,1.9c-0.1,0.3,0.2,0.9,0,1.2c-0.3,0.5-0.3,0.2-0.9,0.6c-0.4,0.3-0.1,1.1-0.2,1.6c-0.7-0.5-1.6,0.9-2.3,1.7
			c-0.2,0.2-0.4,0.4-0.5,0.5c-0.5,0.4-1,0.8-1.4,1.2c-1.2,1-2.4,1.9-3.8,2.7c-4.4,2.4-9.1,3.2-14,3.4c-2.7,0.1-5.4,0.2-8-0.4
			c-1.1-0.2-2.4-0.5-3.5-1c-0.3-0.2-0.6-0.2-0.7-0.3c-0.1,0-0.2-0.1-0.2-0.2c0-0.1,0-0.3,0.1-0.7c0.3-0.8,0.5-1.5,0.8-2.3
			c1.7-5.2,2.1-11.6,0.7-16.9c-0.4-1.7-1-3.4-1.6-5.1c-4.8-10.1-13.3-17-22.5-23c-0.1-0.1-0.2-0.1-0.3-0.2c0.2-0.1,0.5-0.4,0.8-0.8
			c0.9-1,1.9-2.4,1-2.8c0,0,0,0-0.1,0c0,0,0.1,0,0.1,0c0.6-0.2,1.2-0.4,1.7-0.9c-0.2,0-0.5,0-0.7,0c0.3,0,0.6-0.1,0.8-0.3
			c0.2-0.2,0.7-1.2,1-1.6c1.3-1.5,2.7-2.9,4.2-4.4c0.9-0.9,3.6-2.4,3.6-3.6c0-0.4,1.1-1.6,1.4-2c1.2,1.2,3.9-2.2,5-3.2
			c0.1-0.1,0.1-0.1,0.2-0.2c0,0,0.1,0.1,0.1,0.1c1,1.2,5.9,0.2,7.4,0.3c1.5,0.1,2.9,0.4,4.4,0.7c1,0.2,2.1,1,3.1,1.1
			c1.1,0.1,2.7,2,3.4,2.8c1.2,1.4,2.5,2.7,3.8,3.9c1.2,1.1,2.3,2.3,3.3,3.6c1,1.2,1.3,2.1,2.3,2.5c0.4,0.1,0.8,0.2,1.4,0.2
			c-2.6-3.6-5.5-6.7-8.6-9.8c-0.6-0.7-1.3-1.3-1.9-2c0-0.1-0.1-0.1-0.1-0.2c-1.8-2.4-5.4-3.6-8.2-4.1c-1.7-0.3-3.4-0.5-5.2-0.4
			c-1.3,0.1-3.5,1-4.5,0c0.3-0.2,0.5-0.6,0.8-0.9c-0.3,0.2-0.6,0.3-0.9,0.6c-0.8-0.9-0.9,0.4-1.4,0.8c-1,0.8-2.1,1.5-3.2,2.2
			c-0.8,0.5-1.4-0.4-2.3,0.4c-0.5,0.5-0.1,1.8-1,1.1c-1.3-1.1-0.8,1.4-0.8,1.8c0.2,1.3-2.3,2.5-3.2,3.3c-2.4,2.1-3.9,5.9-6.7,7.1
			c0.2,0,0.4,0,0.7,0c-0.5,0-1,0.2-1.5,0.5c-0.7,0.4-0.7,1,0.1,1.2c-0.9,0.2-1.6,1.1-0.5,1.5c-0.9,1.4-2.6-0.5-3.7-1.2
			c-0.9-0.5-1.6-0.9-1.8-1.9c-0.5-0.3-1.2-0.2-1.8-0.2c0,0-0.1,0-0.2,0c0.1,0,0.2,0.1,0.3,0.1c0.6,0.3,1.2,0.6,1.7,1
			c-0.4-0.2-1.2-0.8-1.7-1c-0.4-0.2-0.7-0.1-0.4,0.7c0.5,1.4,3.7,2.8,4.8,3.6c3.3,2.4,6.7,4.7,9.9,7.2c3.1,2.4,5.9,5.1,8.4,8.1
			c1.2,1.5,2.4,3,3.4,4.7c0.5,0.8,0.9,1.6,1.3,2.4c0.3,0.6,0.6,0.8,1,0.9h-0.5c3.7,9.3,2.8,18.8-1.4,27.7c0.2,0,0.4,0,0.6,0
			c-0.5,0.1-0.8,0.4-1.3,1.1c-0.6,1-1.8,1.6-2.8,2.4c-2.2,1.8-4.2,3.6-6.6,5.1c-4.2,2.7-8.8,4.1-13.7,4.9c-10.1,1.6-22,1.6-31.4-2.7
			c-4.8-2.2-9.5-6-11.6-10.9c-3.8-8.8-2.5-18.9,0.5-27.7c-0.1,0-0.2,0-0.3,0c0.2-0.1,0.3-0.2,0.4-0.4c0.3-0.9,0.6-1.7,1-2.6
			c0.7-1.6,1.3-3.2,2.2-4.7c1.8-3.3,3.7-6.3,6.1-9.2c1.8-2.2,4.4-3.7,6.1-5.8c1.8-2.3,3.8-3.7,6.6-4.9c-0.5,0-0.9,0-1.2,0
			c-1.1,0-2,0.2-3.1,1c-1.5,1.1-2.7,2.3-4,3.5c-2.1,2-4.5,3.6-6.4,5.8c-1.6,1.8-3,3.8-4.3,6c0.1-0.2,0.3-0.5,0.4-0.7
			c1.1-2.4,1-6,3.2-7.4c2.1-1.4,3.7-3.3,5.1-5.3c1.5-2.2,3.2-4.7,3.7-7.4c0.3-1.6,0-3.2-0.6-4.6c-0.3-0.7-1.5-2.4-1.6-1.7
			c0,0.1,0,0.4,0.1,0.8c2.1,5.3-2.3,11.8-6.1,16.1c-0.6,0.7-1.3,1.4-1.8,2c0-0.8-0.1-1.4-0.3-2c-0.2-0.5-0.4-1-0.7-1.6
			c0,0-0.1-0.1-0.1-0.1c-0.4-0.7,2.6-4.8,3-5.5c-1.1,1.2-5.2,4.1-5.2,5.7c0,0.7,1.3,1.4,1.5,2.2c0.3,0.9-0.1,1.9-0.3,2.8
			c-0.9,3.6-2.8,9-6.2,10.9c-3.7,2.1-10.1,0.3-13.7-1.2c-2.6-1-4.9-2.8-7.3-4.2c-2.3-1.5-5-2.3-7.3-3.6c0.7,1.7,4.1,3,5.7,4
			c2.2,1.4,4.1,3.1,6.4,4.5c4.3,2.8,9.9,4.7,15,3.2c3.2-1,5.3-3,6.9-5.7c-1.8,3.3-3.3,6.9-4.5,10.4c0.1,0,0.2,0,0.3,0
			c-0.2,0.1-0.4,0.2-0.5,0.5c-0.3,0.8-0.5,1.7-0.8,2.5c-0.6-0.3-1,1-1.7,1.3c-0.7,0.3-1.3,0.4-2,0.5c-2.7,0.5-5.4,1.1-8.1,1.5
			c-5.6,0.9-11.3,1.4-17,1.9c-5.6,0.6-11.2,1.5-16.9,2c-5.2,0.4-10.6,0.4-15.9,0.4c-3.4,0.1-6.9-0.3-10.3-0.9
			c-2.6-0.4-5.2-0.9-7.9-1.3c-0.8-0.1-1.5-0.3-2.3-0.4c-0.4-0.1-1.1,0.4-1.6,0.4c-2.2,0-4.9-1.1-7.1-1.7c-3.6-0.9-6.9-2.8-10.3-4.4
			c-1.5-0.8-2.9-1.6-4.4-2.4c-0.1,0-0.1,0-0.2-0.1c0,0,0,0,0.1,0c-5.6-3.6-10.6-7.7-15.1-12.6c-2.3-2.5-3.9-4.9-5.5-7.8
			c-0.8-1.5-1.7-2.9-2.5-4.4c-0.3-0.6-0.6-1.2-0.9-1.9c-0.3-0.8-0.5-1-0.9-1c0.2,0,0.3,0,0.5,0c-2.5-9.2-2.4-18.6,0.3-27.7
			c-2.1,0-2.1-0.2-2.6,1.8c-0.3,1.2-0.7,2.5-0.9,3.8c-0.4,2.9-0.7,5.7-0.7,8.6c-1.6-1.1-4.2-1.2-6.1-1c-1.2,0.1-2.3,0.5-3.4,0.6
			c-0.1,0-0.4-0.5-0.6-0.5c-0.2,0.1-0.4,0.3-0.6,0.4c-0.5,0.1-1.1,0.7-1.6,0.9c0.5-2.1-1.2-1.2-2-0.3c-0.5,0.5-1,2.5-1.6,2.1
			c-0.5-0.3-1-1.3-1.6-0.6c-0.6,0.6,0.7,1.9,0.3,2.7c-0.1,0.2-1.6,0.6-1.9,0.8c-0.7,0.4-1.5,0.9-2.2,1.4c-2.6,1.8-4.7,4.2-6.1,7
			c0.2,0,0.4,0,0.6,0h0c0,0,0,0,0,0c-0.6,0.1-0.9,0.4-1.2,1.4c-0.4,1.3-0.7,2.5-0.8,3.8c-2.9-0.6-6.7,0.1-8.6,2.5
			c-2.5,3.2,0.8,5.7,3.6,7.2c-3.9,3.3-6.4,7.7-7.2,12.7c0.1,0,0.2,0,0.3,0c-0.3,0.1-0.4,0.3-0.5,0.9c-0.1,1-0.2,1.9-0.3,2.9
			c0,1.9,0.2,3.9,0.7,5.8c0.2,0.8-0.7,3.6-1.2,4.4c-0.6,1,0.8,1.9,1.6,1.2c-0.2,1.1,0.6,3.7,2.2,2.9c0.3,2.5,4.5,5.7,6.5,6.9
			c1.7,1,3.3,1.7,5.1,2.4c0.5,0.2,1,0.3,1.5,0.3c-0.2,0-0.4,0-0.6,0c1.8,0.5,3.6,1.1,5.4,1.7c0.8,0.2,1.6,0.4,2.5,0.6
			c1.3,0.3,0.9,1,0.6,2.2c-0.5,1.8-1.1,2.1-2.8,2.4c-1.8,0.3-3.5,0.5-5.3,0.5c-2.8,0.1-8.5-1.4-9.1,2.7c-0.6,3.5,5.2,3.2,7.5,3.1
			c0,0,0.1,0,0.1,0c0,0,0,0,0,0c-1.1,2,1.5,3.3,3.3,3.2c1.2-0.1,2.4-0.7,3.6-1.2c0.9-0.3,2.3-1.5,3.2-1.3c0.9,0.1,1.9,1.7,2.7,2.3
			c0.7,0.5,1.9,1.3,2.7,1.5c1.8,0.7,3.7,0,4.1-2c0.4-1.9-0.9-3.6-2.1-4.9c-0.7-0.7-1.5-1.4-2.3-2c-0.4-0.3-0.2-1.9-0.4-2.5
			c-0.1-0.4,0.8-2.6,1-2.6c2.5,0.2,5,0.3,7.6,0.3c-0.1,1.9-0.3,2.4-1.2,4c-0.7,1.2-1.8,2.3-2.2,3.6c-0.5,1.8,0.2,3.4,2.3,3.5
			c2.1,0.1,3.9-1,4.7-3c0.6-1.5,2.5,0.7,3.5,1.2c1.7,0.9,3.5,1.2,5.4,1.2c-0.1-0.1-0.1-0.3-0.1-0.4c2.4,0.2,3,0.1,2.6-2.3
			c0-0.1,0-0.2,0-0.3c0.3,0,0.7-0.1,1.1-0.2c1.1-0.4,2.1-1.5,1.5-2.5c-1.2-2.1-3.2-2.3-5.2-2.8c-0.6-0.2-1.3-0.3-1.9-0.6
			c-0.7-0.3-2.3-1-2.1-2c0-0.2,0.1-0.4,0.3-0.6c0.6-0.6,3.7-0.7,4.4-0.9c2.9-0.6,5.7-1.3,8.5-2.1h-1.1c1.5,0,2.6-0.7,3.9-1.4
			c2.2-1.2,4-2.7,5.3-4.8c3.7-5.6,2.7-13.3,0.9-19.5c7.5,4.5,15.8,7.8,24.3,9.7c1.8,0.4,3.7,0.7,5.5,0.9c1,0.1,2,0.2,3,0.3
			c1.3,0.1,1.3,0.7,1.6,2c1.1,4.2,1.3,8.4,0.9,12.8c0.1,0,0.1,0,0.2,0c-0.5,0.3-0.5,1.5-0.6,2.2c-0.1,0.4-2.5-0.1-3.1-0.1
			c-2.9,0.2-5.9,0.4-8.8,0.6c-4.1,0.3-10.6-0.1-13.9,2.9c-2.7,2.4-5.8,7-2.1,10.1c3.4,2.8,11.2-0.1,15-0.8c-1.9,2.1-3.4,5-1.7,7.5
			c1.3,1.8,4.4,2.1,6.6,1.3c2.3-0.9,4.2-1.3,6-3.1c1.2-1.2,2.4-4.5,3.9-5.1c-0.1,3.9,0.2,7.6,3.9,9.9c2.8,1.7,6.5,1.3,7.2-2.3
			c0.9-4.3-0.8-8.9,0.5-13.1c0.5-1.5,1.5-3.1,1.9-4.8c0.4-1.7-1.2-3.7-1.7-5.2c-2-4.4-0.4-10-0.3-14.6c0.5,0,0.9,0,1.4,0.1
			c-0.2,2.3,1.9,5.1,2.5,7.4c0.4,1.4,0.7,2.9,0.9,4.3c0.2,1.1,0.3,2.6,1.3,2.9c-0.2,0-0.3,0-0.5,0c0.4,1.1,1,2.1,1.2,3.4
			c0.3,2-0.5,3.8,0.5,5.9c0.8,1.9,2.6,3.7,3.9,5.5c1.4,2,2.6,4.2,4.3,6c1.5,1.6,6.5,4.8,8.8,2.9c0.7-0.6,1.2-1.1,1.6-2
			c0.9-2.1-0.7-4.3-2.1-5.9c1,0.1,2-0.1,2.9,0.1c0.9,0.2,2,0.9,2.9,1.3c2,0.8,4.1,1.4,6.2,1.8c3.2,0.6,8.9,1.7,11.9-0.1
			c2.4-1.4,5-2.7,4.4-6c-0.7-3.8-5.7-4.1-8.8-5c2.1-0.4,3.7-1.4,3.4-3.8c-0.2-1.4-1.3-2.5-2.3-3.4c-0.4-0.4-1-0.6-1.5-0.7h0.5
			c-3.9-2.6-8.9-0.8-13,0h6.3h2.9c-1,0-1.9,0-2.9,0c-3.4,0-6.7,0.1-10.1,0.5c-2,0.2-4,0.4-5.9,0.6c-0.5,0-1.3,0.2-1.7,0
			c-0.5-0.3-0.5-0.7-0.8-1c0,0-0.1,0-0.1-0.1c0,0,0.1,0,0.1,0c0.1,0,0.1,0,0.2,0c-1-2.6-1.5-5-1.7-7.7c-0.1-1.1-0.5-7.4,0.4-7.6
			c6-0.8,11.9-1.8,17.9-2.3c2.9-0.2,5.9,0,8.6-1c2.4-0.8,5.3-0.7,7.8-1.4c1.6-0.4,4.8-2.1,6.3-1.6c0.5,0.2-0.7,6.6-0.8,7.8
			c-0.1,1.5,0,3,0.1,4.5c0,0.6,0.1,1.1,0.2,1.7c0.1,0.7,0.2,1.4,0.3,2.2c0.2,1.3,0.6,2.6,1,3.9c0.4,1.3,0.7,1.6,1.7,1.6h-1
			c1.8,4.2,5.5,8.8,9.8,10.6c2.1,0.9,4.1,2.5,6.3,3.4c2,0.9,4.1,0.7,4.9,3c-1.1,0.1-2.2,0.2-3.3,0.5c-1,0.3-2.1-0.1-3.2-0.2
			c-2.1-0.2-4.4,0.3-5.5,2.4c-1,1.9,1.1,2.7,1.8,4.1c0.9,1.7,3.3,1.6,4.8,0.8c-0.4,2.3,2.7,2.7,4.5,2.4c1.6-0.2,2.9-1.2,3.9-2.4
			c1.2-1.4,2.7-2.1,4.1-3.3c0.6-0.5,0.1-2.1-0.2-2.7c-0.5-1-0.3-0.9-0.1-2c1.8,0.3,3.6,0.4,5.4,0.5c0.8,0,1.7,0,2.5,0
			c1.4-0.1,2.1-0.6,2.3,0.8c0.5,2.6-3.7,3.5-4,6.4c-0.4,4.8,6.7,3.6,7.8,0.1c1.3,1.7,3.6,3.8,5.9,3.1c2.1-0.6,2.5-2.8,1.1-4.4
			c1.5,0.5,7.1,2,7.8-0.3c0.9-3.1-5-4.3-7-4.6c-1.4-0.2-5,0.5-5-1.5c0-0.5,5.3-1.4,6.2-1.7c3.9-1.2,7.5-3.4,11-5.6
			c-0.1,0,1.1-0.8,1.4-1c-0.2,0.8,0,2.5,0.9,2.5c1.8,0,3.5,0.1,5.3,0.1c0,0,0.1,0,0.1,0c-0.1,0.1-0.1,0.1-0.1,0.2
			c-1.7,2.3,2.5,2.9,4,2.5c2-0.5,3.3-2,4.1-3.8c0.6-1.3,2.7-2.2,2.7-3.5c0-0.6,0-1.7,0.1-2.8c0.1-0.4,0.1-0.7,0.3-1.1
			c0.3-0.8,0.7-1.3,1.4-1.3c2.1,0,2.1,3.1,2.1,4.8c0,1.4-0.3,2,0.7,3.2c0.9,1.1,1.9,2.2,3.1,3c2.2,1.4,4.5,2.4,7.2,2.4
			c1.9,0,4.2-1.5,2.8-3.7c-0.1-0.1-0.2-0.3-0.3-0.4c1.7,0.2,4.7,0.5,5.7-1.2c0.9-1.6,0.4-4-1.4-4.8c-1.5-0.7-3.6-0.6-5.2-0.9
			c-0.9-0.1-1.8-0.3-2.7-0.4c-0.8-0.1-1.7-0.2-2.5-0.3c-0.4,0-1.6,0-1.8-0.3c-0.1-0.2-0.1-0.5,0-0.8c0.2-0.5,0.6-1.1,0.7-1.2
			c0.7-0.5,2.5-0.5,3.3-0.7h0c2.4,0,6.1-2.3,7.8-3.7c2-1.6,3.2-3.6,4.8-5.4c1,1.8,1.3-0.5,1.2-1.5c0-0.1,0-0.1,0-0.2
			c0,0,0,0.1,0,0.1c0.1,0.6,0.6,1.1,1.2,0.9c0.7-0.3,0.4-1.8,0.2-2.4c-0.1-0.3,1.6-2,1.7-2.6C287.9,176.7,288.2,174.8,288.1,172.5
			L288.1,172.5z M163.1,158.1c0.3,0,0.5,0.2,0.8,0.4C163.6,158.4,163.3,158.3,163.1,158.1L163.1,158.1z M7.6,150.8
			c-1.4-0.9-2.3-2.1-1.6-3.3c1.5-2.5,5.7-3,8.2-2.1c1.2,2.1,5.8,3,4.3,6.3c-0.9,2.2-4.6,1.3-6.5,0.9c-0.7-0.1-1.8-0.5-2.9-1
			C8.7,151.5,8.1,151.2,7.6,150.8L7.6,150.8z M19.3,193.9c0.9,0,1.8-0.1,2.7-0.1c-0.2-0.1-0.4-0.1-0.7-0.2c-3.9-1.1-7.7-2.3-11-4.6
			c-1.6-1.2-2.8-2.6-4.1-4c0,0,0,0,0,0c-0.2-0.2-0.4-0.5-0.5-0.7c-0.6-1-1-2.1-2.3-2.3c0,0-0.1,0-0.1,0c0,0,0,0,0-0.1
			c0.2-1.2,0.3-1.6-0.4-2.6c-0.5-0.7-1,0-0.5-1.3c0.2-0.4,0.5-0.8,0.5-1.2c0.2-1.5-0.6-3.4-0.6-4.9c0-2,0.1-3.9,0.5-5.8
			c-0.2,0-0.3,0-0.4,0c0.3-0.1,0.5-0.3,0.6-1c0.3-1.1,0.6-2.2,1-3.3c0.8-2.1,1.9-4.1,3.3-5.9c0.6-0.9,1.3-2.4,2.4-1.9
			c1,0.4,2,0.6,3,0.8c1.8,0.3,3.5,0.2,5.3-0.1c1.8-0.3,2.4-2.3,2.2-4c-0.1-1.1-0.5-2.1-1.1-3c-0.4-0.5-1.4-1.3-1.6-1.8
			c-0.2-0.7-0.7-0.8-1.4-1.2c-0.3-0.2-0.5-0.3-0.7-0.4c-0.4-0.2-0.5-0.3-0.5-0.8c0-0.2,0.1-0.5,0.2-0.8c2.6,2.4,5.6-4,1.5-3.8
			c0-0.1,0.2-0.3,0.2-0.4c-0.2,0-0.4,0-0.6,0c0.5-0.1,0.8-0.3,1.2-1.1c0.5-0.8,1.2-1.6,1.8-2.3c1.3-1.3,2.7-2.5,4.2-3.5
			c1.7-1.1,2.6-1,2.8-3c0-0.4,2.2-2.2,2.6-2.7c-0.2,0.8,0.3,1.1,1,1c1.1-0.1,1.6-1.4,3.1-1.5c1.8-0.1,3.6-0.1,5.4-0.2
			c0.6,0,1.9-0.3,2.4,0.1c0.5,0.4,1,1,1.6,0.9c0,2.2,0.3,4.4,0.7,6.6c0.2,1.2,0.5,2.3,0.9,3.4c0.4,1.5,0.5,1.9,1.7,2
			c-0.3,0-0.6,0-1,0c1.1,3.4,2.9,6.7,4.8,9.7c1.8,2.8,3.1,5.8,5.4,8.2c2.1,2.3,4.5,4.4,6.8,6.4c1.1,1,2.4,2,3.6,2.8
			c0.5,0.3,1,0.5,1.6,0.5c-0.3,0-0.6,0-0.8,0c0.8,0.3,1.4,3.4,1.7,4.1c0.7,2,1,3.6,1.2,5.7c0.3,3-0.1,6.7-1.4,9.4
			c-2.6,5.5-9.6,6.9-14.9,8.4h0.7c-1.2,0-3.5,1-4.3,0.5c-0.9,0.3-1.9,0.5-2.8,0.7c-1.3,0.2-2.5,0.4-3.8,0.5
			c-6.2,0.5-12.5-0.6-18.7-1.3C22.3,194.1,20.8,194,19.3,193.9L19.3,193.9z M9.4,205.3c-1.5-1,0.1-2.6,1.3-3c1.6-0.6,4.1,0,5.9,0
			c2.1,0,4.2-0.2,6.4-0.5c2.4-0.3,3.5-3.3,3.5-5.3c0.9,0.5,1.8,0.7,2.8,0.9c0.2,0,0.3,0.1,0.5,0.1c-0.1,0.2-0.2,0.4-0.3,0.6
			c-0.5,1.2-0.4,2.4-0.3,3.6c0.2,1.6,0,1.6,1.4,2.5c1,0.7,1.9,1.6,2.7,2.6c0.8,1.1,1.7,3.1,0,3.8c-1.8,0.8-4.1-1-5.4-2.1
			c-2.4-2.1-2.1-2-5.3-0.6c-1.2,0.5-5,2.8-6,0.4c-1-2.3,2.7-3.1,4-3.5c1.6-0.4,2.9-1,4.4-1.8c0.1,0,0.1-0.1,0.2-0.1
			c-0.7-0.6-3.7,0.4-4.8,0.6c-0.9,0.1-1.9,0.2-2.7,0.6c-0.5,0.3-1.6,1.7-1.9,1.7C14.1,205.6,10.7,206.2,9.4,205.3L9.4,205.3z
			 M51.6,201.4c1,0.3,3.4,0.5,3.7,1.8c0.2,1-1.8,2-2.4,1c-1-1.6-2.5-1.8-4-2.3c-0.5-0.2-4.2-1.6-4.1-0.3c0,0.3,4.2,1.5,4.7,1.7
			c1.2,0.4,2.4,0.5,2.9,1.8c-0.1,0-0.3,0-0.4,0.1c0.8,0.2,0.8,0.8,0.7,1.4c0,0.3-0.1,0.5-0.1,0.8c-0.1,0-0.2-0.1-0.3-0.1
			c-0.9-0.1-1.7,0.4-2.2,0.3c-2-0.6-4-1.3-5.8-2.5c-1.4-1-1.8-1.8-2.7-0.2c-0.4,0.8-0.6,1.5-1.2,2.2c-1.3,1.5-4.3,1.7-3.8-0.8
			c0.3-1.6,1.6-2.6,2.4-4c0.8-1.5,1-2.6,0.7-4.3c1.4-0.1,2.8-0.3,4.3-0.5c0.7-0.1,1.4-0.2,2.2-0.4C45.2,200,49.2,200.6,51.6,201.4
			L51.6,201.4z M90.5,213.9c-0.1-0.6-0.1-1.3,0-1.9c0-0.1,0-0.1,0-0.2c0-0.2,0.1-0.4,0.1-0.5c0.2-0.6,0.4-1.1,0.7-1.7
			c0.1-0.2,0.2-0.3,0.3-0.5c0.8-1.5,1.9-2.8,2.8-3.5c-4.5,1.2-8.5,4-13.4,3.5c-1.4-0.1-4.3-0.7-4.7-2.3c-0.2-0.9-0.1-1.8,0.2-2.7
			c0,0,0,0,0-0.1c0.4-1.1,1.1-2.1,2-2.8c4.1-3.3,10-2.8,14.9-3c3.1-0.1,5.8-0.3,8.9-0.2c1.3,0.1,2-0.1,2.4-0.6
			c0.1-0.1,0.1-0.2,0.2-0.3c0.4-0.7,0.5-1.7,0.7-3.1c-0.1,0-0.1,0-0.2,0c0.5-0.3,0.3-1.4,0.3-2.1c0.1-1.2,0.1-2.3,0.1-3.5
			c0-2.2-0.4-4.3-0.8-6.5c2.3,0.6,4.6,0.9,6.9,0.8c0.9,0,1.9-0.3,2.8-0.3c0.5,0,0.9,0.2,1.3,0.1c0,0,0,0,0,0c0,0,0,0.1,0,0.1
			c-0.5,2.1-0.5,4.3-0.3,6.5c0.1,1.2,0.1,4.3,1.4,4.8c0,0,0,0,0,0c0,0,0,0,0,0c-0.2,0-0.3,0-0.5,0c0.5,0.9,1,2,1.3,3.1
			c0.6,1.7,0.4,2.3-0.4,3.9c-0.3,0.5-0.8,1.3-1,1.7c-0.4,0.9-0.4,2.2-0.4,3.4c0,3,0,5.9,0.2,8.9c0.1,2.5-1.2,4.7-3.9,4.4
			c-4.5-0.4-5-7.6-4.6-10.9c0.1-0.7,0.7-3.2,0.2-3c-1.2-2.2-4.3,3.9-4.9,4.8c-1.5,2.1-3.4,4.2-5.8,5.2c-1.5,0.6-3.9,1.4-5.5,0.6
			C91.2,215.5,90.7,214.9,90.5,213.9L90.5,213.9z M93.7,216.4c0.1,0,0.3,0,0.4,0.1C93.9,216.5,93.8,216.5,93.7,216.4L93.7,216.4z
			 M136.8,195.7c1.1,0.1,2.1,0.3,3.2,0.5c2.1,0.3,5-0.4,7.2-0.6c3.9-0.4,8.7-2.6,12.4-0.6c0.6,0.3,4.4,3.8,2.7,4.4
			c-1.1,0.4-2.2,0.7-3.3,1.2c-1.3,0.5-1.7,0.4-3.1,0.2c-4.7-0.7-9.4-0.5-14.1-0.6c2.5,0.6,4.2,1.1,6.7,1.3c2.9,0.3,5.7,0.7,8.6,1.2
			c2.9,0.5,5.7,1.2,8.5,1.9c2,0.5,2.8,1.7,2.2,3.9c-1.1,4.2-7.8,3.3-11,3.1c-2.9-0.2-5.7-0.8-8.4-1.7c-2.2-0.7-3.7-2.3-6.1-2.5
			c-1.5-0.1-3.2,0.6-4.3-0.6c1.3,1.9,6.4,7.9,2.5,9.4c-2.6,1-5.5-1.4-7.2-3.2c-1.5-1.6-2.7-3.6-4-5.3c-0.7-0.9-1.8-1.8-2.3-2.8
			c-0.4-0.7-0.4-1.4-0.9-2.3c-0.7-1.4-0.7-3,0-4.3c0.5-1,0.2-0.9-0.2-1.5c-0.4-0.7-1-1.8-1.3-2.8c-0.4-1.2-0.8-2.4-1.1-3.7
			c-0.2-0.7-0.4-1.3-0.6-2c-0.5-1.6-1-3.2-1.5-4.9c1.8,0.7,5-0.1,6.8-0.6c1.6-0.5,3.1-1.1,4.6-1.9c0.2,2-0.4,11.8,2.1,12.9
			c-0.1,0-0.2,0-0.4,0.1C135,195.3,135.2,195.5,136.8,195.7L136.8,195.7z M250.7,193.8h-0.8c0.5,0,0.8,0.7,1,1.5
			c0.3,1.3,0.2,2.9-0.5,3.1c-0.1,0-0.2,0-0.4,0c-1.8-0.7-4-0.7-5.8,0.3c1.6-1.4,2.3-2.8,3.3-4.8c-0.1,0-0.3,0-0.4,0
			c0.4-0.1,0.8-0.4,0.8-1.1C248.8,193.3,249.7,193.6,250.7,193.8L250.7,193.8z M243.7,199c-0.1,0.6-0.6,1-1.2,0.9
			C242.8,199.7,243.6,199.1,243.7,199L243.7,199z M248.4,199.3c-1.3-0.1-2.7,0-4,0.3C245.2,198.7,247.3,199.3,248.4,199.3
			L248.4,199.3z M187,215.5c-2-0.6,0.2-2.1,1-2.6c0.5-0.7,1.9-0.4,2.7-0.5C189.1,213,187.6,213.9,187,215.5L187,215.5z M192.9,218.2
			c0.3-1.4,3.6-2.6,4.5-3.2c2-1.3-0.1-1.2-1.5-0.8c-1.6,0.4-3.5,1.5-4,3.1c-0.7-0.1-3.2,0.8-3.7-0.4c-0.6-1.5,2.5-2.8,3.5-3.2
			c1.7-0.7,3.6-1.1,5.5-1.2c1.6,0,1.8-1.3,1.4-2.9c1.4,0.2,2.8,0.5,4.2,0.7c-0.2,0.2-0.3,0.5-0.6,0.7c-0.1,1.3,1,2.1,1,3.2
			c0,0.3-1.4,1.5-1.7,1.7c-0.2,0.1-0.7-0.3-1.1,0c-1,0.8-1.2,2.1-2.4,2.8c-0.9,0.6-3.5,1.5-4.5,0.7c-0.3-0.2-0.4-0.4-0.5-0.6
			C192.9,218.6,192.9,218.4,192.9,218.2L192.9,218.2z M231.6,216c-2,0.8-4.8-0.5-7-0.3c-0.7,0.1-5.3-2.6-4.5-0.7
			c0.2,0.6,2.8,1.7,3.3,2.2c0.6,0.5,1.3,1.1,1.3,1.9c0,2.4-4.2,0-5-1c-0.7-0.8-0.1-3.1-2-2c-1.1,0.6-0.5,1.5-0.9,2.4
			c-0.3,0.6-1.4,1.2-1.9,1.3c-0.4,0.1-1,0.2-1.5,0.1c-1.2-0.2-2.2-0.9-1.5-2.1c0-0.1,0.1-0.2,0.2-0.3c1-1.4,2.6-1.9,3.3-3.5
			c0.5-1,0.5-1.7,0.2-2.5c-0.1-0.2-0.1-0.4-0.2-0.6c0.2,0,0.3,0,0.5-0.1c1.2-0.2,2.5-0.3,3.8-0.3c-0.3,2.6,2.2,2.8,4.2,3
			c2.8,0.3,5.8,0.2,7.8,2.5c0,0,0.1,0.1,0.1,0.1C231.6,215.9,231.6,216,231.6,216L231.6,216z M256.8,195.3c-0.5,0.7-0.9,1.5-1.2,2.3
			c-0.2,0.6-0.3,2.9-0.6,3.2c-1,0.8-1.5,1.8-2,2.8c-0.3,0.6-0.7,1.1-1.2,1.6c-0.1,0.1-0.3,0.2-0.4,0.4c-0.9,0.7-2.2,1.3-3.4,1.1
			c-2.9-0.4,0.1-3.4,1.5-4.1c0.4-0.2,2.7-1,2.2-1.6c-0.4-0.5-2.1,0.2-2.4,0.4c-0.9,0.6-1.7,1.7-2.6,2.1c-1.1,0.4-2.7,0-3.9,0
			c-1.3,0-2.1,0.4-2-1.1c0.1-0.8,1.9-1.1,2.5-1.2c1.4-0.4,2.8-0.6,4.2-0.7c0.7-0.1,1.3-0.1,2-0.1c0.6,0,0-0.8,0.1-0.8
			c-0.1-0.1-0.3-0.1-0.4-0.2c1,0.1,2.9,0.7,2.9-1c0-1.3,0-2.6-0.2-3.9c1.5,0.2,3.1,0.4,4.6,0.5c0.2,0,0.4,0,0.5,0.1
			C257,195.1,256.9,195.2,256.8,195.3L256.8,195.3z M279.2,200.8c-2.3-1.2-4.8-2.2-7.4-2.5C273.6,198.2,279.1,198,279.2,200.8
			L279.2,200.8z M268.6,198.1c-1.4,0.7,3.1,1.3,3.8,1.4c2,0.3,4.4,0.5,6,1.9c2.7,2.4-3.1,2.1-4.6,2.4c-0.1,0-0.2,0-0.2,0.1
			c0,0-0.1-0.1-0.1-0.1c-1.3-1.3-2.8-2.3-4.4-3.1c-0.3-0.1-4.6-1-3.5,0.3c0.9,1.2,3.4,1.3,4.7,1.8c1,0.4,4.1,2,3.7,3.5
			c0,0.1,0,0.1-0.1,0.2c-0.2,0.4-0.6,0.7-1.1,0.8c-2.2,0.5-6.5-1.7-7.5-2.4c-1-0.7-2.4-1.8-3-2.9c-0.1-0.2-0.2-0.5-0.3-0.7
			c0-0.1-0.1-0.2-0.1-0.3c-0.2-2.2,0.4-3.6-0.8-5.6c0-0.1-0.1-0.1-0.1-0.2c0.1,0,0.1,0,0.2,0c1.5-0.1,3-0.2,4.4-0.4
			c-0.2,0.4-0.7,2.7,0,2.8C266.7,197.7,267.7,197.9,268.6,198.1L268.6,198.1z"/>
		<path id="path243" d="M266.5,142c0.3,3,4.8,2,4.7-0.9C271,137.7,266.4,138.9,266.5,142L266.5,142z"/>
		<path id="path245" d="M250.2,138.3c-1.7,0.5-2.7,3-1.5,4.4c0.8,1,3,1.1,3.9,0.3C254.7,141.1,252.6,138.4,250.2,138.3L250.2,138.3z
			"/>
		<path id="path247" d="M265.4,146.5c-0.4-0.6-0.6-1.1-1.5-1.6c-1.1-0.6-2.3-1-3.5-1.1c-3.5,0.9-8,7.3-5.2,10.5
			c2.1,2.4,7.6,3.4,10.3,1.6c1.9-1.2,2.9-4,1.6-5.9C266.4,149,266.1,147.7,265.4,146.5L265.4,146.5z M256.7,149.7
			c0.6-1.8,1.9-3.1,3.5-4c3.7-0.5,8.7,7.2,4.4,8.9c-2.1,0.9-5.8,0.3-7.7-1C255.9,152.9,256.4,150.6,256.7,149.7L256.7,149.7z"/>
		<path id="path249" d="M218.2,152.4c1-3.7-4.5-4.3-4.6-0.6C213.4,154.7,217.2,154.8,218.2,152.4L218.2,152.4z"/>
		<path id="path251" d="M198.2,144.5c-0.2,0.3-0.3,1.2-0.6,1.2c-0.8,0-1.6,0-2.4,0.1c-5.2,0.8-6.2,5.9-3.6,9.8
			c2.5,3.7,6.7,6.5,11.2,5.2c2.9-0.8,5.1-5.4,4.7-8.2c-0.1-0.5-0.1-0.9-0.3-1.4c-0.6-2.2-3.1-3.9-5.1-4.6c0.6-1.4,0.3-3.1-1.5-3.3
			C199.8,143.2,198.7,143.6,198.2,144.5L198.2,144.5z M192,150.2c0.6-2.2,3-2.2,4.9-2.5c2.2-0.3,4.1-0.4,6.1,0.8
			c0.7,0.4,1.5,0.9,2,1.6c0.5,0.6,0.5,1.4,1,2c0.2,0.8,0,1.8-0.2,2.6c-0.3,1.3-0.4,0.9-1.2,1.8c-0.7,0.8-1.3,2-2.3,2.5
			c-3.5,1.7-6.8-1.6-8.9-4C192.5,153.9,191.5,151.8,192,150.2L192,150.2z M200.1,145.9"/>
		<path id="path259" d="M30.1,144.7c0.6-0.9,0.5-2.4-0.1-3.2c-1.2-1.6-3-0.9-4.1,0.2C24.8,144.4,28.3,147.4,30.1,144.7L30.1,144.7z"
			/>
		<path id="path261" d="M107.6,184.3c0-0.1,0.1-0.3,0.1-0.3h-0.4C107.4,184,107.5,184.2,107.6,184.3L107.6,184.3z"/>
		<g id="g3246" transform="matrix(-1 0 0 1 326.7 0)">
			<path id="path15" fill="none" d="M280.5,92.1c0,0,0-0.1,0-0.1c0-0.4-0.1-0.7-0.2-0.9C280.4,91.4,280.5,91.8,280.5,92.1z"/>
			<path id="path51" fill="none" d="M275.8,46.1c-0.1,0.2-0.1,0.3-0.2,0.5c0.1,0.1,0.3,0.2,0.4,0.3
				C275.9,46.6,275.9,46.4,275.8,46.1z"/>
			<path id="path53" fill="none" d="M277.8,55.5c-0.1,0-0.1,0-0.2,0c0,0,0,0,0,0.1C277.6,55.5,277.7,55.5,277.8,55.5z"/>
			<path id="path55" fill="none" d="M180.4,69.6c-0.1,0.3-0.2,0.5-0.3,0.8c-0.3,0.7-0.6,1.3-0.9,2c0.6-0.8,1.2-1.8,1.2-2.5
				C180.4,69.8,180.4,69.7,180.4,69.6z"/>
			<path id="path57" fill="none" d="M195.6,98.9C195.6,98.9,195.6,98.9,195.6,98.9C195.6,98.9,195.6,98.9,195.6,98.9z"/>
			<path id="path59" fill="none" d="M273.1,82.6c0.1,1.1,0,2.2-0.1,3.3c0.1-0.4,0.2-0.9,0.3-1.5C273.3,83.6,273.4,83.2,273.1,82.6
				C273.1,82.7,273.1,82.6,273.1,82.6L273.1,82.6z"/>
			<path id="path61" fill="none" d="M220.4,18.6c-0.2-0.4-0.5-0.9-0.7-1.3C219.9,17.8,220.1,18.2,220.4,18.6z"/>
			<path id="path63" fill="none" d="M192.7,97.5c-1.1,0.3-2.2,1-3.3,1.3c0.1,0,0.2,0,0.2,0C190.7,98.5,191.7,97.8,192.7,97.5
				L192.7,97.5z"/>
			<path id="path65" fill="none" d="M188.3,103.1c0,0-0.1,0-0.1,0C188.2,103.1,188.2,103.1,188.3,103.1z"/>
			<path id="path67" fill="none" d="M270.3,110.8c-0.1,0-0.1,0-0.2,0c0,0,0,0,0,0.1C270.2,110.9,270.3,110.9,270.3,110.8z"/>
			<path id="path69" fill="none" d="M200.7,27.8h0.2c0,0,0,0,0,0C200.8,27.7,200.8,27.8,200.7,27.8L200.7,27.8z"/>
			<path id="path71" fill="none" d="M253.7,84.5c0.4-0.1,0.7-0.5,0.9-1C254.4,83.9,254.1,84.3,253.7,84.5z"/>
			<path id="path73" fill="none" d="M255.2,79c-0.4,0.6-0.5,1.2-0.5,1.8c0.3-1.7,0.9-2.4,2.3-3.5c1-0.8,2.8-1.9,4.2-1.9
				c0,0-0.1,0-0.1,0C259.2,75.4,256.2,77.5,255.2,79z"/>
			<path id="path75" fill="none" d="M251.2,83.6c0,0.4,0.1,0.8,0.1,1.2c0.1,0.5,0.2,1,0.4,1.5C251.5,85.5,251.3,84.5,251.2,83.6
				C251.3,83.6,251.3,83.6,251.2,83.6z"/>
			<path id="path77" fill="none" d="M263.7,72.7C263.7,72.7,263.8,72.7,263.7,72.7C263.8,72.7,263.7,72.7,263.7,72.7z"/>
			<path id="path79" fill="none" d="M182.2,101.7c-0.1,0.4,0,0.7,0.1,1C182.2,102.4,182.1,102,182.2,101.7z"/>
			<path id="path81" fill="none" d="M251.8,86.4C251.8,86.4,251.8,86.4,251.8,86.4C251.8,86.4,251.8,86.4,251.8,86.4z"/>
			<path id="path83" fill="none" d="M185.1,99.5c0.8-0.2,1.6-0.3,2.4-0.4c-1.9,0.1-4.4,0.3-5.1,1.9c0,0,0,0,0,0
				C182.9,100.1,184.1,99.7,185.1,99.5L185.1,99.5z"/>
			<path id="path85" fill="none" d="M263.2,72.2C263.2,72.2,263.2,72.2,263.2,72.2C263.2,72.2,263.2,72.2,263.2,72.2z"/>
			<path id="path87" fill="none" d="M263.4,72.4c0,0,0.1,0.1,0.1,0.1C263.5,72.5,263.5,72.5,263.4,72.4z"/>
			<path id="path89" fill="none" d="M195.4,100C195.4,100,195.4,100,195.4,100c0.2-0.3,0.2-0.6,0.2-0.8
				C195.6,99.5,195.5,99.8,195.4,100L195.4,100z"/>
			<path id="path185" fill="#CC0000" d="M219.2,15.3c0,0.6,0.2,1.3,0.5,2c0.3,0.5,0.5,0.9,0.7,1.3c0.8,1.1,1.9,2.1,3,2.5
				c2.5,1,5.7,0.7,8.4,0.7c6.3,0.1,10.6,1.8,15.4,5.9c0.7,0.3,1.5,1.3,2.1,1.8c1.3,1.2,2.6,2.5,3.8,3.8c3.6,4,5.1,8.7,7.6,13.2
				c2,3.5,5.4,6.3,9.3,3.8c4.3-2.8,4.8-8,3.8-12.6c-0.5-2.4-2.6-4.1-3.1-6.3c-0.2-1,0.3-2.1,0.9-2.9c0.4-0.5,0.6-0.7,1-0.7
				c-0.2,0-0.4,0-0.6,0c0.3-1.3,0.4-2.5,0.2-3.8c-0.8-5-3.2-10.5-6.7-14.2c-3.7-3.9-10-6.1-14.7-2.5c-0.5,0.3-1.7,2.3-1.9,2.3
				c-0.9-0.1-1.5-0.5-1.8-1.4c-0.6-2-2.3-3-4.1-4.3c-3.1-2.4-9.7-2.6-12,0.8c-0.6,0.9-1.3,3.2-2.6,2.9c-1-0.2-2.2-2-2.8-2.1
				c-1.3-0.2-2.6-0.1-3.9,0.4c-1.9,0.7-4,2.5-3.9,4.6C217.8,12.1,219.2,13.6,219.2,15.3L219.2,15.3z"/>
			<path id="path187" fill="#CC9966" d="M216.3,122.5c2.1-0.6,3.5-2.4,4.4-4.4c0-0.1-0.1-0.1-0.1-0.2
				C219.6,120.1,218.1,121.6,216.3,122.5z"/>
			<path id="path189" fill="#CC9966" d="M167.7,83.2C167.7,83.2,167.7,83.2,167.7,83.2C167.7,83.2,167.8,83.2,167.7,83.2
				C167.8,83.2,167.7,83.2,167.7,83.2z"/>
			<path id="path191" fill="#CC9966" d="M229.4,124.4c2.2,1.2,5,1.5,7.3,0.7C234.3,125.5,231.8,125.2,229.4,124.4z"/>
			<path id="path193" fill="#CC9966" d="M279,89.8c-1.8-2-2.5-4.3-3.6-6.6c0.1,0,0.2,0,0.3,0c-0.2-0.1-0.4-0.2-0.6-0.7
				c-0.3-0.7-0.6-1.5-0.8-2.2c-0.5-1.5-0.8-3.1-1-4.7c-0.4-3-0.6-6.2,0.4-9.1c0.6-1.7,1.2-3.3,1.8-4.9c0.5-1.3,1.1-2.7,1.3-4.1
				c0.2-1.2,0-1.7,0.7-1.9c0,0,0,0,0-0.1c-0.1,0-0.3,0-0.5,0c0.1-3-0.2-5.7-1.1-8.5c-0.2-0.1-0.3-0.2-0.4-0.3
				c-2.6,5.6-10.8,10.3-15.3,3.6c-1.2-1.8-1.8-4.1-2.8-6c-1.1-2.2-2.4-4.3-3.7-6.3c-2.6-4-5.8-7.5-9.7-10.1c0.2,0,0.4,0,0.6,0
				c-0.5-0.1-0.9-0.2-1.4-0.5c-1-0.7-2.2-1.4-3.3-1.9c-2.4-1.1-4.8-1.4-7.5-1.4c-5-0.1-10,0.8-13-4.1c-0.6-1-1.2-2-1.6-3.1
				c-0.5-1.5-0.4-1.1-1.8-0.8c-0.9,0.2-1.1,0-2.1,0.6c-1.2,0.7-2.5,1.2-3.6,2c-2.1,1.5-3.9,3.5-5.6,5.4c-0.8,0.8-1.6,1.8-2.3,2.7
				c-0.6,0.8-1,1-1.5,1.1c0,0,0,0,0,0h0.7c-3.7,3.8-6.3,9.3-8.6,14c-1.4,2.8-2.8,5.7-4.2,8.5c-0.6,1.3-1.2,2.6-1.8,3.9
				c-0.4,0.9-0.7,1.2-1.3,1.2c0.2,0,0.4,0,0.7,0c-2.1,4.7-4,9.4-6,14.2c0,0.1,0,0.2,0,0.3c0,0.7-0.6,1.6-1.2,2.5
				c-0.8,1.9-1.7,3.9-2.6,5.8c-0.5,1.1-1.1,2.3-1.7,3.4c-0.5,1.1-0.8,1.4-1.4,1.5c0.2,0,0.4,0,0.6,0c-1,1.6-2.2,3.5-3.9,4.4
				c-0.7,0.1-1.2,0.5-1.7,0.8c0.4-1,0.8-1.9,1.5-2.8c0.5-0.7,1-1.3,1.5-2c0.2-0.3,0.4-0.4,0.7-0.5c-0.1,0-0.2,0-0.4,0
				c0.9-1.7,1.8-3.3,2.8-5c-1.1,0.9-2,1.9-3.1,2.8c-0.8,0.7-1.5,1.4-2.3,2.1c0,0-0.1,0.1-0.2,0.1h0.1c-1.8,1.7-3.2,3.4-3.8,5.8
				c-0.4,1.4-0.6,2,0.6,2.8c0.8,0.5,1.4,1.1,1.3,2.1c-0.4,4.8,3.5,7.3,7.4,8.8c2.8,1.1,5.8,1,8.7,0.9c-0.6-0.1-1.1-0.3-1.3-0.8
				c-0.1-0.2-0.2-0.6-0.1-1c0,0,0-0.1,0-0.1c0-0.2,0.1-0.3,0.2-0.5c0,0,0,0,0,0c0.7-1.6,3.2-1.8,5.1-1.9c0.7-0.1,1.3-0.2,1.9-0.3
				c1.1-0.3,2.2-1,3.3-1.3c0.5-0.1,0.9-0.2,1.4-0.1c1,0.2,1.5,0.8,1.5,1.5c0,0,0,0,0,0c0,0.1,0,0.2,0,0.3c0,0.3-0.1,0.5-0.2,0.8
				c0.4-0.3,0.8-0.6,1.2-0.9c1.1,1.7,0.4,3.8,0.8,5.7c0.5,2.1,1.2,4.1,2.1,6c-0.2,0-0.4,0-0.6,0c0.5,0.1,0.7,0.3,1.2,1.1
				c0.5,0.9,1,1.7,1.6,2.5c1.1,1.4,2.3,2.9,3.7,4c2.6,2.1,6.3,3.4,9.6,2.7c2.5-0.6,2.6-2.5,3.7-4.5c0.3-0.7,0.8-1.6,1.4-1.6
				c0.3,0,1.6,1,1.8,1.3c2.5,3.1,5.7,5.8,9.7,6.7c1.6,0.4,3.1,0.4,4.7,0c1.3-0.3,2.4-0.9,3.5-1.6c1.2-0.8,1.4-1.3,1.9-2.5
				c0.5-1.4,1.4-2.8,1.6-4.1c0.1-0.9,0.5-1.7,1.4-2c1.1-0.3,1.4,0.3,2.3,0.9c4.2,2.7,9.7,3.5,14.5,2.3c1.6-0.4,3.2-1.1,4.6-2.1
				c0.8-0.5,1.5-1.2,2.2-1.9c0.8-0.7,1.2-1,1.8-1.2c0,0,0,0,0-0.1c-0.3,0-0.5,0-0.7,0c2.1-3,2.4-6.4,1.9-10c-0.1-1.1,2-1.2,2.7-1.4
				c1.3-0.4,2.5-2,3.4-2.9c1-0.9,2.7-2.9,2.9-4.4c0-0.4-0.1-0.7-0.2-1C280,90.7,279.5,90.3,279,89.8L279,89.8z M273.2,84.5
				c-0.1,0.5-0.2,1-0.3,1.5c-0.1,0.4-0.1,0.8-0.2,1.3c-0.5,1.5-1.3,3-2.4,4.1c-0.3,0.3-1,0.6-1.3,1c-0.4,0.6-0.2,0.6-0.3,1.4
				c-0.1,1.1-0.2,2.1-0.5,3.2c-1.2,4-4.2,7.3-8.7,6.7c-0.9-0.1-1.9-0.4-2.7-1c-0.8-0.6-0.5-0.3-1.3,0.1c-1.5,0.8-2.5,1.6-4.3,1.7
				c-4.3,0.2-8.4-2.3-9.5-6.6c-1.2-4.7,2.1-10.2,5.8-12.9c1-0.7,2-0.9,2.5-2c0.4-1,0.2-2.7,0.4-3.8c0.4-2.6,1.7-4.8,4-6.2
				c4-2.5,10.2-2.8,13.9,0.2c2.9,2.3,4.4,5.8,4.6,9.4c0,0,0,0,0,0C273.4,83.2,273.3,83.6,273.2,84.5z"/>
			<path id="path195" fill="#FF6500" d="M270.2,77.5c-0.5-2.2-3.4-4.1-5.4-4.9c-0.6-0.3-1.2-0.4-1.8-0.5c-1.6-0.2-3.3,0.3-4.8,0.8
				c-2.4,0.8-4.8,2-6.1,4.3c-1.1,2-1,4.2-0.8,6.4c0,0,0,0.1,0.1,0.1c0,0.8,0.2,1.8,0.5,2.7c0,0,0,0,0,0.1c0,0,0,0,0,0
				c1.5,3.5,6.4,5.2,9.7,5.4c3.9,0.1,6.6-0.1,8.7-3.6C272,85.3,272.2,80.3,270.2,77.5z"/>
			<path id="path197" fill="#CC0000" d="M258.1,101.8c0.8,0.6,1.9,0.7,2.9,0.6c4.5-0.2,6-5.4,6.3-9.1c-2.8,0.6-5.1,0.8-8,0.3
				c1.1,1.8,0.2,3.6-0.7,5.3C257.9,100.2,256.8,100.8,258.1,101.8z"/>
			<path id="path199" fill="#CC0000" d="M248.1,102.3c2.9,1,6.1,0.4,7.8-2.2c1.3-2,1.8-4.4,2.8-6.4c0-0.3-4.3-2-5.1-2.5
				c-1.8-1.2-3.5-3.4-3.8-5.6c-2.9,2.8-5.4,5.1-6,9.3C243.3,98.2,244.6,101.1,248.1,102.3L248.1,102.3z"/>
			<path id="path201" fill="#CE9A63" d="M195.6,98.9C195.6,98.9,195.6,98.9,195.6,98.9c-0.1-0.7-0.5-1.3-1.5-1.5
				c-0.5-0.1-0.9,0-1.4,0.1c-1,0.3-2.1,1-3,1.3c-0.1,0-0.2,0-0.2,0c-0.6,0.1-1.3,0.2-1.9,0.3c-0.8,0.1-1.6,0.2-2.4,0.4
				c-1,0.2-2.2,0.6-2.7,1.6c-0.1,0.2-0.1,0.3-0.2,0.5c0,0.1,0,0.1,0,0.1c-0.1,0.4,0,0.7,0.1,1c0.2,0.5,0.6,0.7,1.3,0.8
				c1.1-0.1,2.2-0.1,3.3-0.2c0.4,0,0.9-0.1,1.3-0.1c0,0,0.1,0,0.1,0c2.5-0.4,5-1.6,7.1-3.1c0.1-0.3,0.2-0.6,0.2-0.8
				C195.6,99.1,195.6,99,195.6,98.9L195.6,98.9z"/>
			<path id="path253" d="M251,67.1c1.2-0.3,2.3-1.3,3-2.8c0.7-1.5,0.8-3.7-0.9-5c-1.7-1.3-5.5,1.2-5.5,3c0,1.8-0.3,3.4,0.5,4.3
				S249.8,67.4,251,67.1L251,67.1z"/>
			<path id="path255" d="M267.2,65c1.1-0.3,1.9-1.6,2.4-2.5c0.6-1.2,0.7-2.8-0.3-3.8c-2.1-2.1-4.4,1.1-4.7,3
				C264.2,63.3,265.4,65.4,267.2,65z"/>
			<path id="path257" d="M273.1,82.6c-0.2-3.6-1.7-7-4.6-9.4c-3.8-3-10-2.7-13.9-0.2c-2.3,1.4-3.6,3.6-4,6.2c-0.2,1.1,0,2.8-0.4,3.8
				c-0.4,1.1-1.5,1.3-2.5,2c-3.7,2.7-6.9,8.1-5.8,12.9c1.1,4.3,5.1,6.8,9.5,6.6c1.8-0.1,2.8-1,4.3-1.7c0.8-0.4,0.5-0.8,1.3-0.1
				c0.8,0.6,1.7,0.9,2.7,1c4.5,0.6,7.5-2.7,8.7-6.7c0.3-1,0.4-2.1,0.5-3.2c0.1-0.8-0.2-0.8,0.3-1.4c0.3-0.4,0.9-0.7,1.3-1
				c1.1-1.1,1.9-2.6,2.4-4.1c0.1-0.4,0.2-0.8,0.2-1.3C273.1,84.9,273.1,83.7,273.1,82.6L273.1,82.6z M249.8,85.5
				c0.3,2.2,2,4.4,3.8,5.6c0.8,0.5,5.1,2.2,5.1,2.5c-1,2-1.5,4.4-2.8,6.4c-1.7,2.6-4.9,3.2-7.8,2.2c-3.4-1.1-4.8-4-4.3-7.5
				C244.4,90.6,247,88.3,249.8,85.5L249.8,85.5z M258.5,98.9c0.9-1.7,1.8-3.5,0.7-5.3c2.8,0.5,5.2,0.3,8-0.3
				c-0.2,3.8-1.7,8.9-6.3,9.1c-1,0.1-2.1-0.1-2.9-0.6C256.8,100.8,257.9,100.2,258.5,98.9z M261.6,91.8c-3.3-0.1-8.2-1.9-9.8-5.4
				c0,0,0,0,0,0c0,0,0,0,0-0.1c-0.2-0.5-0.3-1-0.4-1.5c0-0.4-0.1-0.8-0.1-1.2c-0.2-2.1-0.3-4.4,0.8-6.4c1.3-2.3,3.6-3.5,6.1-4.3
				c1.5-0.5,3.2-0.9,4.8-0.8c0.6,0.1,1.2,0.2,1.8,0.5c1.9,0.8,4.9,2.7,5.4,4.9c2,2.8,1.8,7.9,0.1,10.7
				C268.1,91.7,265.5,91.9,261.6,91.8L261.6,91.8z"/>
			<path id="path3244" d="M276.8,62.7c0.9-2.4,1.4-4.7,1.7-7.3c-0.1,0-0.2,0-0.3,0c0.2-0.1,0.3-0.3,0.3-0.7c0-0.7,0.1-1.4,0.1-2.1
				c0-1.4-0.2-2.9-0.5-4.3c-0.5-2.2-1.6-4.3-1.6-6.5c-0.1-2.6-0.5-5.2-1.7-7.5c-0.5-0.9-2.1-2.7-1.7-3.5c0.4-1,0.8-2,1-3.1
				c-0.1,0-0.3,0-0.4,0c0.3-0.1,0.4-0.4,0.4-1c0-0.9,0-1.7,0-2.6c-0.1-1.8-0.5-3.5-0.9-5.2c-1.1-3.9-3.5-7-5.9-10.1
				c-3.5-4-8.8-6.6-14-4.7c-1.3,0.5-2.6,1-3.9,1.6c-0.8,0.4-2-1.4-2.8-2c-2-1.6-4.2-2.7-6.7-3.3c-2.4-0.6-5.4-0.8-7.7,0.2
				c-1.1,0.5-2.1,1.6-2.9,2.5c-1.1,1.4-1,1.8-2.7,1c-4.2-1.9-10.5,1.4-10.5,6.3c0,1,0.2,1.9,0.6,2.8c-7.7,2.6-12.9,7.9-17.6,14.4
				c-6.4,8.2-10.9,18.1-14.8,27.7c0.3,0,0.6,0,0.8,0c-0.7,0.1-0.9,0.3-1.4,1.5c-0.7,1.7-1.4,3.4-2.1,5c-1,2.5-2,5-3,7.4
				c-0.7,1.6-1.4,3.2-2,4.8c-0.4,0.9-2.3,1.9-3.2,2.7c-2.2,1.9-4.7,3.9-6.4,6.3c0.2,0,0.5,0,0.8,0.1c0,0,0,0,0,0c0,0,0,0,0,0
				c-0.8,0.1-1.3,0.5-2.1,1.6c-0.8,1.3-1.5,2.5-2,3.9c-0.4,1.2-0.5,2.5,0.3,3.6c0.5,0.7,0.8,1.1,0.5,2c-0.7,2.3-2.7,4.8-3.7,7.1
				c-1.3,3-2.3,6.1-3.2,9.3c2.5,0,2.2-0.2,2.9-2.5c0.4-1.4,0.9-2.8,1.5-4.1c1.1-2.7,2.1-5.5,3.9-7.8c0.9,6.2,8.7,9.1,14.1,9.1
				c1.6,0,3.2-0.4,4.8-0.5c1.6,0,2.9,0.1,4.5-0.1c2.4-0.3,4.2-0.6,6.3-1.7c0.2,1.7,0.5,3.4,1,5c0.2,0.7,0.5,1.4,0.8,2.2
				c0.1,0.3,0.3,0.5,0.6,0.5c-0.1,0-0.2,0-0.3,0c2.2,5.4,6.2,9.7,11.6,11.8c2.5,1,5,0.9,7.1-0.1c1.8-0.8,3.3-2.4,4.3-4.5
				c0,0.1,0.1,0.1,0.1,0.2c2,2.8,5.2,5.1,8.7,6.2c2.4,0.8,4.9,1.1,7.3,0.7c0.9-0.1,1.7-0.4,2.5-0.7c2-0.8,2.9-2,4-3.7
				c0.9-1.4,2.2-3.5,2.3-5.3c1.2,0.4,2.3,1.2,3.5,1.6c1.5,0.5,2.9,0.9,4.4,1.2c2.7,0.6,5.5,0.6,8.2,0c4.5-1,8-3.6,10.4-7.5h-0.2
				c0.1,0,0.2-0.1,0.3-0.2c0.3-0.7,0.6-1.4,0.8-2.1c0.3-1.2,0.5-2.4,0.7-3.6c0.1-0.7,0.1-1.4,0-2.1c-0.1-1.2,0.1-0.8,0.9-1.4
				c0.9-0.6,1.9-0.8,2.7-1.7c1.9-2.1,5.3-5.1,5-8.2c-0.1-1.3-0.8-2.1-1.6-3c-1.2-1.4-2.1-2.9-3.2-4.4c-0.1-0.6-0.3-0.8-0.7-0.9
				c0.1,0,0.2,0,0.3,0c-1.6-4.7-2.9-9.8-2.3-14.8L276.8,62.7z M221.6,5.9c1.3-0.5,2.6-0.5,3.9-0.4c0.6,0.1,1.8,1.8,2.8,2.1
				c1.3,0.3,2-2,2.7-2.9c2.3-3.4,8.9-3.1,12-0.8c1.7,1.3,3.4,2.2,4.1,4.3c0.3,0.9,0.9,1.2,1.8,1.4c0.3,0,1.5-1.9,1.9-2.3
				c4.7-3.6,11-1.4,14.7,2.5c3.5,3.7,5.9,9.2,6.7,14.2c0.2,1.3,0.1,2.5-0.2,3.8c0.2,0,0.4,0,0.6,0c-0.3,0.1-0.6,0.3-1,0.7
				c-0.6,0.8-1.1,1.9-0.9,2.9c0.4,2.2,2.6,4,3.1,6.3c1,4.7,0.6,9.9-3.8,12.6c-3.9,2.5-7.4-0.3-9.3-3.8c-2.6-4.5-4.1-9.3-7.6-13.2
				c-1.2-1.3-2.5-2.6-3.8-3.8c-0.6-0.5-1.4-1.5-2.1-1.8c-4.8-4-9.1-5.8-15.4-5.9c-2.7,0-5.8,0.2-8.4-0.7c-1.1-0.4-2.2-1.4-3-2.5
				c-0.3-0.4-0.6-0.9-0.7-1.3c-0.3-0.7-0.5-1.3-0.5-2c0-1.7-1.4-3.2-1.5-4.8C217.7,8.4,219.8,6.6,221.6,5.9L221.6,5.9z M280.5,92.1
				c-0.2,1.4-2,3.4-3,4.3c-0.9,0.9-2.2,2.5-3.4,2.9c-0.7,0.2-2.8,0.3-2.7,1.4c0.4,3.6,0.1,7-1.9,10c0.1,0,0.4,0,0.7,0
				c0.1,0,0.1,0,0.2,0c-0.1,0-0.1,0-0.2,0c-0.6,0.1-1.1,0.4-1.8,1.2c-0.7,0.7-1.4,1.3-2.2,1.9c-1.4,1-3,1.7-4.6,2.1
				c-4.8,1.2-10.4,0.4-14.5-2.3c-0.9-0.6-1.2-1.2-2.3-0.9c-0.9,0.3-1.3,1.2-1.4,2c-0.1,1.3-1.1,2.7-1.6,4.1
				c-0.5,1.3-0.7,1.7-1.9,2.5c-1.1,0.7-2.3,1.3-3.5,1.6c-1.6,0.4-3.1,0.3-4.7,0c-3.9-0.9-7.1-3.7-9.7-6.7c-0.2-0.3-1.5-1.3-1.8-1.3
				c-0.6,0-1,0.9-1.4,1.6c-1.1,2-1.2,3.9-3.7,4.5c-3.4,0.8-7.1-0.6-9.6-2.7c-1.4-1.1-2.7-2.6-3.7-4c-0.6-0.8-1.1-1.7-1.6-2.5
				c-0.5-0.8-0.7-1.1-1.2-1.1c0.2,0,0.4,0,0.6,0c-0.9-2-1.6-3.9-2.1-6c-0.4-1.9,0.3-4-0.8-5.7c-0.4,0.3-0.8,0.6-1.2,0.9
				c0,0,0,0-0.1,0c-2.1,1.5-4.6,2.6-7.1,3.1c0,0-0.1,0-0.1,0c-0.4,0.1-0.9,0.1-1.3,0.1c-1.1,0.1-2.2,0.1-3.3,0.2
				c-2.9,0.2-5.9,0.2-8.7-0.9c-3.9-1.5-7.9-3.9-7.4-8.8c0.1-1-0.5-1.6-1.3-2.1c-1.2-0.8-0.9-1.4-0.6-2.8c0.6-2.4,2-4.1,3.8-5.8h-0.1
				c0.1,0,0.1-0.1,0.2-0.1c0.7-0.7,1.5-1.4,2.3-2.1c1-0.9,2-1.9,3.1-2.8c-0.9,1.7-1.8,3.3-2.8,5c0.1,0,0.2,0,0.4,0
				c-0.3,0.1-0.5,0.2-0.7,0.5c-0.5,0.7-1,1.3-1.5,2c-0.7,1-1.1,1.8-1.5,2.8c0.5-0.3,1-0.8,1.7-0.8c1.7-0.9,2.9-2.9,3.9-4.4
				c-0.2,0-0.4,0-0.6,0c0.6-0.1,0.9-0.4,1.4-1.5c0.6-1.1,1.1-2.3,1.7-3.4c0.9-1.9,1.8-3.8,2.6-5.8c0.3-0.7,0.6-1.3,0.9-2
				c0.1-0.3,0.2-0.5,0.3-0.8c1.9-4.8,3.8-9.5,6-14.2c-0.3,0-0.5,0-0.7,0c0.6-0.1,0.8-0.3,1.3-1.2c0.6-1.3,1.2-2.6,1.8-3.9
				c1.4-2.9,2.8-5.7,4.2-8.5c2.3-4.7,5-10.2,8.6-14h-0.7h-0.2c0.1,0,0.1,0,0.2,0c0.5-0.1,0.9-0.4,1.5-1.1c0.7-0.9,1.5-1.8,2.3-2.7
				c1.8-1.9,3.5-3.9,5.6-5.4c1.1-0.8,2.4-1.3,3.6-2c1-0.6,1.1-0.4,2.1-0.6c1.4-0.3,1.3-0.7,1.8,0.8c0.4,1.1,0.9,2.1,1.6,3.1
				c3.1,4.8,8.1,4,13,4.1c2.7,0,5.1,0.3,7.5,1.4c1.1,0.5,2.3,1.2,3.3,1.9c0.5,0.3,0.9,0.5,1.4,0.5c-0.2,0-0.4,0-0.6,0
				c3.9,2.7,7.1,6.2,9.7,10.1c1.3,2,2.6,4.1,3.7,6.3c1,1.9,1.6,4.2,2.8,6c4.5,6.7,12.7,2,15.3-3.6c0.1-0.2,0.1-0.3,0.2-0.5
				c0.1,0.3,0.2,0.5,0.2,0.8c0.8,2.8,1.2,5.6,1.1,8.5c0.2,0,0.3,0,0.5,0c0.1,0,0.2,0,0.2,0c-0.1,0-0.2,0-0.2,0
				c-0.7,0.2-0.5,0.6-0.7,1.9c-0.2,1.4-0.8,2.8-1.3,4.1c-0.6,1.6-1.2,3.2-1.8,4.9c-1,2.9-0.8,6.1-0.4,9.1c0.2,1.6,0.6,3.1,1,4.7
				c0.2,0.8,0.5,1.5,0.8,2.2c0.2,0.4,0.4,0.6,0.6,0.7c-0.1,0-0.2,0-0.3,0c1,2.3,1.8,4.7,3.6,6.6c0.5,0.5,1,0.9,1.3,1.3
				c0.2,0.3,0.3,0.6,0.2,0.9C280.5,92.1,280.5,92.1,280.5,92.1L280.5,92.1z"/>
		</g>
	</g>
</g>
</svg>
