<?xml version="1.0" encoding="utf-8"?>
<!-- Generator: Adobe Illustrator 16.0.0, SVG Export Plug-In . SVG Version: 6.00 Build 0)  -->
<!DOCTYPE svg PUBLIC "-//W3C//DTD SVG 1.1//EN" "http://www.w3.org/Graphics/SVG/1.1/DTD/svg11.dtd">
<svg version="1.1" id="Capa_1" xmlns="http://www.w3.org/2000/svg" xmlns:xlink="http://www.w3.org/1999/xlink" x="0px" y="0px"
	 width="119.1px" height="33.8px" viewBox="0 0 119.1 33.8" enable-background="new 0 0 119.1 33.8" xml:space="preserve">
<g>
	<polygon fill="#EFE459" stroke="#000000" stroke-miterlimit="10" points="2.5,11.6 4.2,7.7 1.9,4 6.2,4.4 8.9,1.1 9.8,5.3 
		13.8,6.9 10.1,9.1 9.9,13.4 6.6,10.5 	"/>
	<polygon fill="#EFE459" stroke="#000000" stroke-miterlimit="10" points="10.3,22.1 6.9,21.5 4.5,23.9 4.1,20.5 1.1,18.9 4.2,17.5 
		4.7,14.1 7,16.6 10.4,16.1 8.8,19.1 	"/>
	<polygon fill="#EFE459" stroke="#000000" stroke-miterlimit="10" points="19.3,21.4 16.4,18.6 12.5,19.3 14.3,15.7 12.4,12.1 
		16.4,12.8 19.2,9.9 19.8,13.9 23.4,15.6 19.8,17.4 	"/>
	<polygon fill="#EFE459" stroke="#000000" stroke-miterlimit="10" points="17,32.1 14.1,31 11.6,32.8 11.8,29.7 9.3,27.9 12.3,27.1 
		13.3,24.2 14.9,26.7 18,26.8 16.1,29.2 	"/>
	<polygon fill="#EFE459" stroke="#000000" stroke-miterlimit="10" points="31.6,9.2 27.8,9.3 25.6,12.4 24.4,8.8 20.8,7.8 23.8,5.5 
		23.7,1.7 26.8,3.9 30.4,2.6 29.2,6.3 	"/>
	<rect x="42.6" y="4.8" fill="none" width="76.5" height="24.1"/>
	<g enable-background="new    ">
		<path fill="#FFFFFF" d="M51.1,5.2h1v5.4c0,2.1-1.1,2.8-2.4,2.8c-0.4,0-0.9-0.1-1.1-0.2l0.2-0.9c0.2,0.1,0.5,0.2,0.9,0.2
			c0.9,0,1.5-0.4,1.5-2V5.2z"/>
		<path fill="#FFFFFF" d="M58.7,11.7c0,0.6,0,1.1,0,1.6h-0.9l-0.1-0.9h0c-0.3,0.5-0.9,1.1-1.9,1.1c-0.9,0-2-0.5-2-2.5V7.5h1.1v3.2
			c0,1.1,0.3,1.8,1.3,1.8c0.7,0,1.2-0.5,1.4-1c0.1-0.2,0.1-0.3,0.1-0.5V7.5h1.1V11.7z"/>
		<path fill="#FFFFFF" d="M65.5,7.5c0,0.4,0,0.9,0,1.6v3.4c0,1.3-0.3,2.1-0.8,2.7c-0.6,0.5-1.4,0.7-2.1,0.7c-0.7,0-1.5-0.2-1.9-0.5
			l0.3-0.8c0.4,0.2,1,0.5,1.7,0.5c1.1,0,1.9-0.6,1.9-2v-0.6h0c-0.3,0.5-0.9,1-1.8,1c-1.4,0-2.5-1.2-2.5-2.8c0-2,1.3-3.1,2.6-3.1
			c1,0,1.6,0.5,1.8,1h0l0-0.9H65.5z M64.4,9.8c0-0.2,0-0.3-0.1-0.5c-0.2-0.6-0.7-1.1-1.5-1.1c-1,0-1.7,0.9-1.7,2.2
			c0,1.1,0.6,2.1,1.7,2.1c0.6,0,1.2-0.4,1.5-1.1c0.1-0.2,0.1-0.4,0.1-0.6V9.8z"/>
		<path fill="#FFFFFF" d="M70.4,13.3l-0.1-0.7h0c-0.3,0.5-0.9,0.9-1.8,0.9c-1.2,0-1.8-0.8-1.8-1.7c0-1.4,1.2-2.2,3.5-2.2V9.5
			c0-0.5-0.1-1.3-1.3-1.3c-0.5,0-1.1,0.2-1.5,0.4l-0.2-0.7c0.5-0.3,1.2-0.5,1.9-0.5c1.8,0,2.2,1.2,2.2,2.4v2.2c0,0.5,0,1,0.1,1.4
			H70.4z M70.3,10.3c-1.2,0-2.5,0.2-2.5,1.3c0,0.7,0.5,1,1,1c0.8,0,1.2-0.5,1.4-1c0-0.1,0.1-0.2,0.1-0.3V10.3z"/>
		<path fill="#FFFFFF" d="M73,9.1c0-0.6,0-1.1,0-1.6h0.9l0.1,1h0c0.3-0.6,1-1.1,1.9-1.1c0.8,0,2.1,0.5,2.1,2.5v3.5h-1.1V10
			c0-0.9-0.3-1.7-1.3-1.7c-0.7,0-1.2,0.5-1.4,1.1c0,0.1-0.1,0.3-0.1,0.5v3.5H73V9.1z"/>
		<path fill="#FFFFFF" d="M84.7,4.8v7c0,0.5,0,1.1,0,1.5h-0.9l0-1h0c-0.3,0.6-1,1.1-2,1.1c-1.4,0-2.5-1.2-2.5-3
			c0-1.9,1.2-3.1,2.6-3.1c0.9,0,1.5,0.4,1.8,0.9h0V4.8H84.7z M83.6,9.9c0-0.1,0-0.3,0-0.4c-0.2-0.7-0.7-1.2-1.5-1.2
			c-1.1,0-1.7,1-1.7,2.2c0,1.2,0.6,2.1,1.7,2.1c0.7,0,1.4-0.5,1.5-1.3c0-0.1,0-0.3,0-0.5V9.9z"/>
		<path fill="#FFFFFF" d="M91.7,10.4c0,2.1-1.5,3.1-2.9,3.1c-1.6,0-2.8-1.2-2.8-3c0-1.9,1.3-3.1,2.9-3.1
			C90.5,7.4,91.7,8.6,91.7,10.4z M87.1,10.4c0,1.3,0.7,2.2,1.8,2.2c1,0,1.8-0.9,1.8-2.3c0-1-0.5-2.2-1.7-2.2S87.1,9.3,87.1,10.4z"/>
		<path fill="#FFFFFF" d="M99.7,13.1c-0.3,0.1-0.9,0.3-1.7,0.3c-1.8,0-2.9-1.2-2.9-3c0-1.8,1.2-3.1,3.1-3.1c0.6,0,1.2,0.2,1.5,0.3
			l-0.2,0.8c-0.3-0.1-0.6-0.3-1.2-0.3c-1.3,0-2.1,1-2.1,2.2c0,1.3,0.9,2.2,2,2.2c0.6,0,1-0.2,1.3-0.3L99.7,13.1z"/>
		<path fill="#FFFFFF" d="M106.1,10.4c0,2.1-1.5,3.1-2.9,3.1c-1.6,0-2.8-1.2-2.8-3c0-1.9,1.3-3.1,2.9-3.1
			C105,7.4,106.1,8.6,106.1,10.4z M101.5,10.4c0,1.3,0.7,2.2,1.8,2.2c1,0,1.8-0.9,1.8-2.3c0-1-0.5-2.2-1.7-2.2S101.5,9.3,101.5,10.4
			z"/>
		<path fill="#FFFFFF" d="M107.4,9.1c0-0.6,0-1.1,0-1.6h0.9l0.1,1h0c0.3-0.6,1-1.1,1.9-1.1c0.8,0,2.1,0.5,2.1,2.5v3.5h-1.1V10
			c0-0.9-0.3-1.7-1.3-1.7c-0.7,0-1.2,0.5-1.4,1.1c0,0.1-0.1,0.3-0.1,0.5v3.5h-1.1V9.1z"/>
	</g>
	<g enable-background="new    ">
		<path fill="#FFFFFF" d="M58.8,19.6v8.1h-1v-8.1H58.8z"/>
		<path fill="#FFFFFF" d="M60.7,19.2h1.1v8.5h-1.1V19.2z"/>
		<path fill="#FFFFFF" d="M63.6,19.2h1.1v8.5h-1.1V19.2z"/>
		<path fill="#FFFFFF" d="M71.2,26.1c0,0.6,0,1.1,0,1.6h-0.9l-0.1-0.9h0c-0.3,0.5-0.9,1.1-1.9,1.1c-0.9,0-2-0.5-2-2.5v-3.4h1.1v3.2
			c0,1.1,0.3,1.8,1.3,1.8c0.7,0,1.2-0.5,1.4-1c0.1-0.2,0.1-0.3,0.1-0.5v-3.6h1.1V26.1z"/>
		<path fill="#FFFFFF" d="M72.9,26.6c0.3,0.2,0.9,0.4,1.4,0.4c0.8,0,1.1-0.4,1.1-0.9c0-0.5-0.3-0.8-1.1-1.1c-1-0.4-1.5-0.9-1.5-1.6
			c0-0.9,0.8-1.7,2-1.7c0.6,0,1.1,0.2,1.4,0.4l-0.3,0.8c-0.2-0.1-0.6-0.3-1.2-0.3c-0.6,0-1,0.4-1,0.8c0,0.5,0.3,0.7,1.1,1
			c1,0.4,1.5,0.9,1.5,1.8c0,1-0.8,1.7-2.2,1.7c-0.6,0-1.2-0.2-1.6-0.4L72.9,26.6z"/>
		<path fill="#FFFFFF" d="M79,20.2v1.7h1.5v0.8H79v3.1c0,0.7,0.2,1.1,0.8,1.1c0.3,0,0.5,0,0.6-0.1l0,0.8c-0.2,0.1-0.5,0.1-0.9,0.1
			c-0.5,0-0.9-0.2-1.1-0.4c-0.3-0.3-0.4-0.8-0.4-1.5v-3.2h-0.9v-0.8H78v-1.4L79,20.2z"/>
		<path fill="#FFFFFF" d="M81.7,23.7c0-0.7,0-1.3,0-1.8h0.9l0,1.1h0c0.3-0.8,0.9-1.3,1.6-1.3c0.1,0,0.2,0,0.3,0v1
			c-0.1,0-0.2,0-0.4,0c-0.7,0-1.3,0.6-1.4,1.4c0,0.1,0,0.3,0,0.5v3.1h-1V23.7z"/>
		<path fill="#FFFFFF" d="M88.8,27.7L88.7,27h0c-0.3,0.5-0.9,0.9-1.8,0.9c-1.2,0-1.8-0.8-1.8-1.7c0-1.4,1.2-2.2,3.5-2.2v-0.1
			c0-0.5-0.1-1.3-1.3-1.3c-0.5,0-1.1,0.2-1.5,0.4l-0.2-0.7c0.5-0.3,1.2-0.5,1.9-0.5c1.8,0,2.2,1.2,2.2,2.4v2.2c0,0.5,0,1,0.1,1.4
			H88.8z M88.6,24.7c-1.2,0-2.5,0.2-2.5,1.3c0,0.7,0.5,1,1,1c0.8,0,1.2-0.5,1.4-1c0-0.1,0.1-0.2,0.1-0.3V24.7z"/>
		<path fill="#FFFFFF" d="M92.6,20.2v1.7h1.5v0.8h-1.5v3.1c0,0.7,0.2,1.1,0.8,1.1c0.3,0,0.5,0,0.6-0.1l0,0.8
			c-0.2,0.1-0.5,0.1-0.9,0.1c-0.5,0-0.9-0.2-1.1-0.4c-0.3-0.3-0.4-0.8-0.4-1.5v-3.2h-0.9v-0.8h0.9v-1.4L92.6,20.2z"/>
		<path fill="#FFFFFF" d="M100.5,24.8c0,2.1-1.5,3.1-2.9,3.1c-1.6,0-2.8-1.2-2.8-3c0-1.9,1.3-3.1,2.9-3.1
			C99.3,21.8,100.5,23,100.5,24.8z M95.9,24.8c0,1.3,0.7,2.2,1.8,2.2c1,0,1.8-0.9,1.8-2.3c0-1-0.5-2.2-1.7-2.2S95.9,23.7,95.9,24.8z
			"/>
		<path fill="#FFFFFF" d="M101.8,23.7c0-0.7,0-1.3,0-1.8h0.9l0,1.1h0c0.3-0.8,0.9-1.3,1.6-1.3c0.1,0,0.2,0,0.3,0v1
			c-0.1,0-0.2,0-0.4,0c-0.7,0-1.3,0.6-1.4,1.4c0,0.1,0,0.3,0,0.5v3.1h-1V23.7z"/>
	</g>
</g>
<g>
</g>
<g>
</g>
<g>
</g>
<g>
</g>
<g>
</g>
<g>
</g>
<g>
</g>
<g>
</g>
<g>
</g>
<g>
</g>
<g>
</g>
<g>
</g>
<g>
</g>
<g>
</g>
<g>
</g>
</svg>
