<?xml version="1.0" encoding="utf-8"?>
<!-- Generator: Adobe Illustrator 16.0.0, SVG Export Plug-In . SVG Version: 6.00 Build 0)  -->
<!DOCTYPE svg PUBLIC "-//W3C//DTD SVG 1.1//EN" "http://www.w3.org/Graphics/SVG/1.1/DTD/svg11.dtd">
<svg version="1.1" id="Capa_1" xmlns="http://www.w3.org/2000/svg" xmlns:xlink="http://www.w3.org/1999/xlink" x="0px" y="0px"
	 width="101.7px" height="100px" viewBox="0 0 101.7 100" enable-background="new 0 0 101.7 100" xml:space="preserve">
<g>
	<ellipse fill="#AD8A18" cx="50.8" cy="50" rx="50.8" ry="50"/>
	<path d="M23,52.7v-5.3C23,47.2,23,47,23,46.8l0.3-0.3l4.6-0.6c0.3-0.8,0.6-1.5,1-2.3l-2.6-3.4c-0.1-0.2-0.2-0.4-0.2-0.6
		c0-0.2,0-0.5,0.2-0.6l2.5-2.6c0.6-0.8,1.4-1.4,2.3-1.8h0.7l3.4,2.6l2.3-1c0.1-1.6,0.4-3.2,0.7-4.8c0.1-0.5,0.4-0.9,0.8-1.1h5.6
		c0.3,0.2,0.5,0.4,0.7,0.6c0.2,0.2,0.3,0.5,0.3,0.8l0.7,4.5l2.3,1l3.4-2.6H53c2.8,2.6,4.3,4,4.3,4.7c0,0.2,0,0.4-0.2,0.6l-1.3,1.6
		l-1.3,1.8l1,2.4l4.4,0.6l0.7,0.3c0.2,0.2,0.3,0.4,0.3,0.6v5.3c-0.1,0.2-0.2,0.5-0.3,0.6l-0.7,0.3l-4.6,0.6c-0.3,0.8-0.6,1.5-1,2.2
		l2.6,3.4c0.1,0.2,0.2,0.4,0.2,0.6c0,0.2,0,0.5-0.2,0.6l-2.5,2.6c-0.6,0.8-1.4,1.4-2.3,1.8h-0.7l-3.4-2.6l-2.3,1
		c-0.2,2.1-0.5,3.9-0.7,4.8c-0.1,0.4-0.4,0.8-0.8,1h-5.4c-0.3-0.2-0.5-0.4-0.7-0.6c-0.2-0.2-0.3-0.4-0.3-0.6l-0.7-4.5l-2.3-1
		l-3.4,2.6h-1.1c-2.8-2.6-4.3-4-4.3-4.7c0-0.2,0-0.4,0.2-0.6l1.1-1.4l1.3-1.8c-0.4-0.8-0.7-1.6-1-2.4l-4.4-0.6l-0.3-0.3
		C22.9,53.3,23,53,23,52.7z M36.1,44.9c-2.9,2.9-2.8,7.6,0.2,10.5s7.7,2.8,10.6-0.2c2.9-2.9,2.8-7.6-0.2-10.5
		c-1.4-1.4-3.4-2.1-5.4-2.1c-1.9,0.1-3.7,0.9-5.1,2.3L36.1,44.9L36.1,44.9z M60.5,38.3c-2.9-0.3-4.7-0.6-4.7-1v-4
		c0-0.3,1.8-0.6,4.7-1c0.3-0.5,0.7-1,1.1-1.4c-0.7-1.3-1.2-2.6-1.5-4h0.2l1-0.6l1.8-1l0.8-0.5c0.5,0.3,1,0.8,1.3,1.3l1.5,1.9h1.8
		c0.8-1.1,1.8-2.2,2.8-3.2h0.2l3.6,1.9h0.2c-0.3,1.4-0.8,2.8-1.5,4c0.3,0.5,0.5,0.9,0.7,1.4c2.9,0.3,4.1,0.6,4.1,1v4
		c0,0.3-1.1,0.6-4.1,1c-0.2,0.5-0.5,1-0.8,1.4c0.7,1.3,1.3,2.6,1.6,4H75l-3.6,2.1c-0.5-0.3-1-0.8-1.3-1.3l-1.5-1.9h-1.8l-1.5,1.9
		c-0.3,0.5-0.8,1-1.3,1.3l-3.6-2.1h-0.2c0.2-1.4,0.6-2.8,1.3-4l-1-1.4l0,0L60.5,38.3z M60.5,67.8c-2.9-0.3-4.7-0.6-4.7-1v-4
		c0-0.3,1.8-0.6,4.7-1c0.3-0.5,0.7-1,1.1-1.4c-0.7-1.3-1.2-2.6-1.5-4h0.2l1-0.6l1.8-1l0.8-0.5c0.5,0.3,1,0.8,1.3,1.3l1.5,1.9h1.8
		c0.8-1.1,1.8-2.2,2.8-3.2h0.2l3.6,1.9h0.2c-0.3,1.4-0.8,2.8-1.5,4c0.3,0.5,0.5,0.9,0.7,1.4c2.9,0.3,4.1,0.6,4.1,1v4
		c0,0.3-1.1,0.6-4.1,1c-0.2,0.5-0.5,1-0.8,1.4c0.7,1.3,1.3,2.6,1.6,4H75l-3.6,2.1c-0.5-0.3-1-0.8-1.3-1.3L68.7,72h-1.8L65.4,74
		c-0.3,0.5-0.8,1-1.3,1.3l-3.6-2.1h-0.2c0.2-1.4,0.6-2.8,1.3-4l-1-1.4l0,0L60.5,67.8z M64.1,35.4c-0.1,2,1.6,3.7,3.7,3.8
		c2.1,0,3.8-1.6,3.8-3.6c0-2-1.6-3.7-3.7-3.8c-1,0-2,0.4-2.7,1c-0.7,0.6-1.1,1.5-1.1,2.4V35.4L64.1,35.4z M64.1,64.9
		c-0.1,2,1.6,3.7,3.7,3.8c2.1,0,3.8-1.6,3.8-3.6c0-2-1.6-3.7-3.7-3.8c-1,0-2,0.4-2.7,1c-0.7,0.6-1.1,1.5-1.1,2.4V64.9L64.1,64.9z"/>
</g>
</svg>
