<?xml version="1.0" encoding="utf-8"?>
<!-- Generator: Adobe Illustrator 16.0.0, SVG Export Plug-In . SVG Version: 6.00 Build 0)  -->
<!DOCTYPE svg PUBLIC "-//W3C//DTD SVG 1.1//EN" "http://www.w3.org/Graphics/SVG/1.1/DTD/svg11.dtd">
<svg version="1.1" id="Pagina_inicial_Mobil" xmlns="http://www.w3.org/2000/svg" xmlns:xlink="http://www.w3.org/1999/xlink"
	 x="0px" y="0px" width="130px" height="35px" viewBox="0 0 130 35" enable-background="new 0 0 130 35" xml:space="preserve">
<title>servicio-3</title>
<g>
	<circle fill="#AD8A18" cx="65.028" cy="17.528" r="17.528"/>
	<path d="M62.292,20.43v-2.734c-0.01-0.123,0.03-0.244,0.112-0.335l0.335-0.112h0.167v-0.893c0.003-1.171,0.955-2.119,2.126-2.116
		c1.168,0.003,2.113,0.948,2.115,2.116v0.893h0.168l0.336,0.112c0.08,0.091,0.121,0.212,0.111,0.335v2.734
		c0.01,0.123-0.031,0.244-0.111,0.336l-0.336,0.111h-4.577l-0.335-0.111C62.316,20.678,62.274,20.553,62.292,20.43z M63.8,17.249
		h2.4v-0.893c0.005-0.313-0.116-0.614-0.335-0.837c-0.221-0.225-0.523-0.346-0.837-0.335c-0.313-0.004-0.614,0.116-0.837,0.335
		c-0.224,0.22-0.346,0.523-0.335,0.837v0.893l0,0H63.8z"/>
	<path d="M54.254,22.049c-0.629-1.443-0.953-3.002-0.949-4.577c0.007-1.574,0.33-3.13,0.949-4.578
		c0.602-1.39,1.453-2.657,2.512-3.74c1.069-1.076,2.34-1.93,3.74-2.512c1.444-0.629,3.002-0.953,4.577-0.949
		c1.575,0.007,3.13,0.33,4.578,0.949c1.39,0.602,2.657,1.454,3.739,2.512c1.076,1.069,1.93,2.34,2.513,3.74
		c0.63,1.444,0.952,3.002,0.948,4.578c-0.008,1.574-0.33,3.129-0.948,4.577c-0.603,1.391-1.453,2.658-2.513,3.74
		c-2.223,2.175-5.207,3.396-8.317,3.406c-1.574-0.008-3.13-0.33-4.577-0.949c-1.39-0.602-2.657-1.453-3.74-2.512
		C55.705,24.674,54.853,23.424,54.254,22.049z M56.208,12.727c-1.578,2.967-1.578,6.523,0,9.49l2.512-2.512
		c-0.247-0.7-0.379-1.436-0.391-2.177c0.01-0.742,0.142-1.478,0.391-2.177l-2.512-2.568l0,0V12.727z M61.567,13.899
		c-1.942,1.982-1.91,5.164,0.071,7.104c1.981,1.942,5.163,1.91,7.104-0.069c1.943-1.982,1.91-5.164-0.07-7.105
		c-0.943-0.924-2.212-1.44-3.532-1.437C63.791,12.377,62.497,12.923,61.567,13.899L61.567,13.899z M60.395,8.541l2.512,2.512
		c0.7-0.247,1.435-0.379,2.177-0.391c0.743,0.01,1.479,0.142,2.178,0.391l2.566-2.512c-2.975-1.561-6.532-1.54-9.489,0.056
		L60.395,8.541z M60.395,26.348c2.966,1.578,6.523,1.578,9.49,0l-2.512-2.512c-0.701,0.246-1.436,0.379-2.178,0.391
		c-0.742-0.01-1.478-0.143-2.177-0.391L60.395,26.348z M71.504,19.648l2.512,2.512c1.578-2.967,1.578-6.522,0-9.489l-2.512,2.512
		c0.488,1.452,0.469,3.027-0.057,4.465H71.504z"/>
</g>
</svg>
