<?xml version="1.0" encoding="utf-8"?>
<!-- Generator: Adobe Illustrator 16.0.0, SVG Export Plug-In . SVG Version: 6.00 Build 0)  -->
<!DOCTYPE svg PUBLIC "-//W3C//DTD SVG 1.1//EN" "http://www.w3.org/Graphics/SVG/1.1/DTD/svg11.dtd">
<svg version="1.1" id="Pagina_inicial_Mobil" xmlns="http://www.w3.org/2000/svg" xmlns:xlink="http://www.w3.org/1999/xlink"
	 x="0px" y="0px" width="130px" height="35px" viewBox="0 0 130 35" enable-background="new 0 0 130 35" xml:space="preserve">
<title>servicio-1</title>
<circle fill="#AD8A18" cx="65" cy="17.5" r="17.5"/>
<path d="M55.434,18.457V16.6c-0.031-0.072-0.031-0.153,0-0.225l0.112-0.112l1.576-0.225c0.093-0.271,0.206-0.534,0.338-0.788
	l-0.9-1.182c-0.041-0.068-0.061-0.146-0.056-0.225c-0.015-0.079,0.006-0.161,0.056-0.225l0.844-0.9
	c0.207-0.269,0.477-0.482,0.788-0.619h0.225l1.182,0.9l0.788-0.338c0.047-0.566,0.122-1.129,0.225-1.688
	c0.021-0.17,0.127-0.319,0.281-0.394h1.914c0.089,0.059,0.166,0.136,0.225,0.225c0.065,0.08,0.104,0.178,0.112,0.282l0.225,1.575
	l0.788,0.338l1.182-0.9h0.394c0.956,0.9,1.463,1.407,1.463,1.632c0.005,0.079-0.015,0.157-0.056,0.225l-0.451,0.563l-0.449,0.619
	l0.338,0.844l1.519,0.225l0.226,0.112c0.058,0.063,0.097,0.141,0.111,0.226V18.4c-0.018,0.083-0.057,0.16-0.111,0.225l-0.226,0.113
	l-1.575,0.225c-0.092,0.271-0.204,0.535-0.338,0.787l0.9,1.182c0.045,0.066,0.064,0.146,0.057,0.226
	c0.014,0.079-0.006,0.161-0.057,0.226l-0.844,0.9c-0.207,0.268-0.479,0.481-0.788,0.619h-0.225l-1.182-0.9l-0.788,0.337
	c-0.056,0.731-0.169,1.351-0.225,1.688c-0.029,0.154-0.135,0.281-0.281,0.338h-1.857c-0.093-0.055-0.171-0.133-0.225-0.226
	c-0.058-0.063-0.097-0.141-0.112-0.226l-0.225-1.575l-0.788-0.337l-1.182,0.9h-0.394c-0.957-0.9-1.463-1.407-1.463-1.633
	c-0.004-0.078,0.016-0.156,0.056-0.225l0.394-0.506l0.45-0.619c-0.137-0.271-0.25-0.554-0.337-0.844l-1.52-0.226l-0.112-0.112
	C55.398,18.654,55.42,18.55,55.434,18.457z M59.936,15.699c-0.994,1.027-0.967,2.666,0.06,3.66s2.666,0.967,3.66-0.061
	s0.967-2.666-0.06-3.66c-0.498-0.481-1.167-0.744-1.859-0.728c-0.661,0.03-1.285,0.312-1.745,0.788H59.936z M68.32,13.392
	c-1.014-0.112-1.633-0.225-1.633-0.338v-1.406c0-0.113,0.619-0.225,1.633-0.338c0.114-0.181,0.246-0.351,0.394-0.506
	c-0.243-0.439-0.413-0.914-0.507-1.407h0.057l0.338-0.225l0.619-0.337l0.281-0.169c0.181,0.115,0.334,0.269,0.449,0.45l0.507,0.675
	h0.619c0.292-0.397,0.612-0.773,0.956-1.125h0.057l1.238,0.675h0.057c-0.104,0.49-0.273,0.964-0.508,1.407
	c0.095,0.159,0.17,0.329,0.227,0.506c1.012,0.112,1.406,0.225,1.406,0.337v1.407c0,0.113-0.395,0.225-1.406,0.338
	c-0.077,0.178-0.172,0.347-0.282,0.506c0.247,0.443,0.437,0.916,0.563,1.407h-0.057L72.09,15.98c-0.182-0.115-0.335-0.269-0.45-0.45
	l-0.507-0.675h-0.619l-0.506,0.675c-0.115,0.181-0.27,0.335-0.45,0.45l-1.237-0.731h-0.057c0.066-0.492,0.219-0.968,0.45-1.407
	l-0.338-0.506l0,0L68.32,13.392z M68.32,23.746c-1.014-0.113-1.633-0.225-1.633-0.338v-1.406c0-0.113,0.619-0.226,1.633-0.338
	c0.114-0.182,0.246-0.352,0.394-0.506c-0.243-0.439-0.413-0.914-0.507-1.408h0.057l0.338-0.225l0.619-0.338l0.281-0.168
	c0.181,0.115,0.334,0.269,0.449,0.449l0.507,0.676h0.619c0.292-0.396,0.612-0.773,0.956-1.125h0.057l1.238,0.675h0.057
	c-0.104,0.49-0.273,0.964-0.508,1.407c0.095,0.159,0.17,0.329,0.227,0.506c1.012,0.113,1.406,0.225,1.406,0.338v1.406
	c0,0.113-0.395,0.225-1.406,0.338c-0.077,0.178-0.172,0.348-0.282,0.506c0.247,0.443,0.437,0.916,0.563,1.408h-0.057l-1.238,0.73
	c-0.182-0.115-0.335-0.269-0.45-0.449l-0.507-0.676h-0.619l-0.506,0.676c-0.115,0.181-0.27,0.334-0.45,0.449l-1.237-0.73h-0.057
	c0.066-0.492,0.219-0.969,0.45-1.408l-0.338-0.506l0,0L68.32,23.746z M69.559,12.379c-0.018,0.714,0.549,1.307,1.264,1.323
	c0.715,0.017,1.307-0.55,1.323-1.264s-0.55-1.307-1.265-1.323c-0.346-0.008-0.68,0.123-0.93,0.364
	c-0.236,0.219-0.377,0.522-0.393,0.844V12.379z M69.559,22.732c-0.018,0.715,0.549,1.308,1.264,1.324
	c0.715,0.016,1.307-0.55,1.323-1.264c0.017-0.715-0.55-1.309-1.265-1.324c-0.346-0.008-0.68,0.123-0.93,0.363
	c-0.236,0.22-0.377,0.523-0.393,0.845V22.732z"/>
</svg>
