<?xml version="1.0" encoding="utf-8"?>
<!-- Generator: Adobe Illustrator 16.0.0, SVG Export Plug-In . SVG Version: 6.00 Build 0)  -->
<!DOCTYPE svg PUBLIC "-//W3C//DTD SVG 1.1//EN" "http://www.w3.org/Graphics/SVG/1.1/DTD/svg11.dtd">
<svg version="1.1" id="Capa_1" xmlns="http://www.w3.org/2000/svg" xmlns:xlink="http://www.w3.org/1999/xlink" x="0px" y="0px"
	 width="100px" height="100px" viewBox="0 0 100 100" enable-background="new 0 0 100 100" xml:space="preserve">
<g>
	<circle fill="#AD8A18" cx="50" cy="50" r="50"/>
	<path d="M42.2,52.2v-7.6c0-0.3,0.1-0.7,0.3-1l1-0.3h0.5v-2.5c0-3.3,2.7-6,6.1-6c3.3,0,6,2.7,6,6v2.5h0.5l1,0.3
		c0.2,0.3,0.3,0.6,0.3,1v7.8c0,0.3-0.1,0.7-0.3,1l-1,0.3H43.6l-1-0.3C42.3,53.1,42.1,52.7,42.2,52.2z M46.5,43.1h6.8v-2.5
		c0-0.9-0.3-1.8-1-2.4c-0.6-0.6-1.5-1-2.4-1c-0.9,0-1.8,0.3-2.4,1c-0.6,0.6-1,1.5-1,2.4v2.5l0,0H46.5z"/>
	<path d="M21.2,64.2V31.5c0-1.3,0.5-2.5,1.4-3.3c0.9-0.9,2.1-1.4,3.3-1.4h47.9c1.3,0,2.5,0.5,3.3,1.4c0.9,0.9,1.4,2.1,1.4,3.3v32.6
		c0,1.3-0.5,2.5-1.4,3.3c-0.9,0.9-2.1,1.4-3.3,1.4H57.6c0,0.8,0.2,1.5,0.5,2.2l1,2.1c0.2,0.4,0.4,0.8,0.5,1.3c0,1.1-0.9,1.9-1.9,1.9
		H42.2c-1.1,0-1.9-0.9-1.9-1.9c0.1-0.5,0.2-0.9,0.5-1.3l1-2.1c0.3-0.8,0.5-1.6,0.5-2.4H26c-1.3,0-2.5-0.5-3.3-1.4
		C21.7,66.5,21.2,65.4,21.2,64.2z M25,56.5c0,0.2,0.1,0.5,0.3,0.6l0.6,0.3h47.9l0.6-0.3c0.2-0.2,0.3-0.4,0.3-0.6V31.7
		c0-0.2-0.1-0.5-0.3-0.6l-0.6-0.3H26L25.3,31c-0.2,0.2-0.3,0.4-0.3,0.6V56.5L25,56.5z"/>
</g>
</svg>
