<?xml version="1.0" encoding="utf-8"?>
<!-- Generator: Adobe Illustrator 16.0.0, SVG Export Plug-In . SVG Version: 6.00 Build 0)  -->
<!DOCTYPE svg PUBLIC "-//W3C//DTD SVG 1.1//EN" "http://www.w3.org/Graphics/SVG/1.1/DTD/svg11.dtd">
<svg version="1.1" id="Capa_1" xmlns="http://www.w3.org/2000/svg" xmlns:xlink="http://www.w3.org/1999/xlink" x="0px" y="0px"
	 width="100px" height="100px" viewBox="0 0 100 100" enable-background="new 0 0 100 100" xml:space="preserve">
<g>
	<path fill="#AD8A18" d="M50,0c27.6,0,50,22.4,50,50c0,27.6-22.4,50-50,50C22.4,100,0,77.6,0,50C0,22.4,22.4,0,50,0z"/>
	<path d="M42.2,58.3v-7.8c0-0.4,0.1-0.7,0.3-1l1-0.3h0.5v-2.5c0-3.3,2.7-6,6.1-6c3.3,0,6,2.7,6,6v2.5h0.5l1,0.3
		c0.2,0.3,0.3,0.6,0.3,1v7.8c0,0.3-0.1,0.7-0.3,1l-1,0.3H43.5l-1-0.3C42.3,59,42.1,58.6,42.2,58.3z M46.5,49.2h6.8v-2.5
		c0-0.9-0.3-1.8-1-2.4c-0.6-0.6-1.5-1-2.4-1c-0.9,0-1.8,0.3-2.4,1c-0.6,0.6-1,1.5-1,2.4v2.5l0,0H46.5z"/>
	<path d="M19.3,62.9c-1.8-4.1-2.7-8.6-2.7-13.1c0-4.5,0.9-8.9,2.7-13.1c1.7-4,4.1-7.6,7.2-10.7c3-3.1,6.7-5.5,10.7-7.2
		c4.1-1.8,8.6-2.7,13.1-2.7c4.5,0,8.9,0.9,13.1,2.7c4,1.7,7.6,4.1,10.7,7.2c3.1,3,5.5,6.7,7.2,10.7c1.8,4.1,2.7,8.6,2.7,13.1
		c0,4.5-0.9,8.9-2.7,13.1c-1.7,4-4.1,7.6-7.2,10.7c-6.3,6.2-14.9,9.7-23.7,9.7c-4.5,0-8.9-0.9-13.1-2.7c-4-1.7-7.6-4.1-10.7-7.2
		C23.4,70.4,21,66.8,19.3,62.9z M24.8,36.3c-4.5,8.5-4.5,18.6,0,27.1l7.2-7.2c-0.7-2-1.1-4.1-1.1-6.2c0-2.1,0.4-4.2,1.1-6.2
		l-7.2-7.3l0,0V36.3z M40.1,39.6c-5.5,5.7-5.4,14.7,0.2,20.3c5.7,5.5,14.7,5.4,20.3-0.2c5.5-5.7,5.4-14.7-0.2-20.3
		c-2.7-2.6-6.3-4.1-10.1-4.1C46.5,35.3,42.8,36.9,40.1,39.6L40.1,39.6z M36.8,24.4l7.2,7.2c2-0.7,4.1-1.1,6.2-1.1
		c2.1,0,4.2,0.4,6.2,1.1l7.3-7.2c-8.5-4.5-18.6-4.4-27.1,0.2L36.8,24.4z M36.8,75.2c8.5,4.5,18.6,4.5,27.1,0L56.7,68
		c-2,0.7-4.1,1.1-6.2,1.1c-2.1,0-4.2-0.4-6.2-1.1L36.8,75.2z M68.5,56l7.2,7.2c4.5-8.5,4.5-18.6,0-27.1l-7.2,7.2
		c1.4,4.1,1.3,8.6-0.2,12.7H68.5z"/>
</g>
</svg>
